<svg xmlns="http://www.w3.org/2000/svg" version="1.1" viewBox="0 0 140 140">
    <g transform="matrix(0.3783783783783784,0,0,0.3783783783783784,0,0)">
        <path d="M320.37,256.68c0,75.53-61.23,78.32-136.75,78.32S46.86,332.21,46.86,256.68a136.76,136.76,0,0,1,273.51,0Z" fill="#acdae5"></path>
        <path d="M317.06,101.41A36.78,36.78,0,0,1,312,101c-7.93-1.11-13.4-3.79-15.82-7.75-3.3-5.47-2.53-15.64-2-19.76,1-9,4.63-19.65,11.55-22.81a27.37,27.37,0,0,1,10.65-1.81,40.47,40.47,0,0,1,5.73.41c3.77.54,8.79,1.89,11.25,5.23a7.51,7.51,0,0,1,1.36,5.83,7,7,0,0,1-.65,2.36c-1.66,3.12-5.65,3.12-7,3.12a48,48,0,0,1-5.26-.4,44.27,44.27,0,0,0-4.67-.37c-1.22,0-2.73.15-3,.86a8.3,8.3,0,0,0-.39,1.71l1.59.22c4.9.75,10.92,1.68,10.12,7-1.08,7.15-7.9,7.15-10.47,7.15-1.07,0-2.14,0-3.18-.1a2.18,2.18,0,0,0,1.71,2.4c.48.16,2.53.54,3.52.68a34.91,34.91,0,0,0,3.93.27,36.16,36.16,0,0,1,4.22.31,6.27,6.27,0,0,1,4.16,2.48,6.59,6.59,0,0,1,1.16,4.9C330,96.13,327.53,101.41,317.06,101.41Z" fill="#404041"></path>
        <path
            d="M316.3,50.91a37.86,37.86,0,0,1,5.44.39c5.65.81,11.81,3.18,10.92,8.77a6.82,6.82,0,0,1-.42,1.7c-.84,1.63-2.81,2.09-5.21,2.09-3.1,0-6.92-.77-9.93-.77-2.34,0-4.19.46-4.87,2.1a10.09,10.09,0,0,0-.53,2.25,10.91,10.91,0,0,0-.11,2l3.41.47c4.72.73,8.93,1.36,8.42,4.74-.71,4.67-4.45,5.45-8.49,5.45-1.67,0-3.4-.13-5-.18l-.12.9c-.28,2.08.11,4.59,3,5.49a38.46,38.46,0,0,0,3.82.75c2.85.41,5.51.17,8.14.57a4.37,4.37,0,0,1,3.65,5.09c-.87,5.38-6.28,6.74-11.42,6.74a36.17,36.17,0,0,1-4.83-.35c-7.3-1-12.34-3.47-14.38-6.82-2.39-3.94-2.58-11.55-1.77-18.48,1-8.79,4.48-18.51,10.4-21.22a25.79,25.79,0,0,1,9.82-1.63m0-4a29.46,29.46,0,0,0-11.48,2c-3.67,1.68-6.71,5.16-9,10.34a49.59,49.59,0,0,0-3.69,14.06c-.63,5.36-1.17,15.24,2.32,21,2.74,4.51,8.71,7.52,17.25,8.71a39.28,39.28,0,0,0,5.38.39,20.92,20.92,0,0,0,9.05-1.75,10.9,10.9,0,0,0,6.32-8.35,8.64,8.64,0,0,0-1.52-6.4,8.3,8.3,0,0,0-5.48-3.28A36.92,36.92,0,0,0,321,83.3h-.4a9.32,9.32,0,0,0,6.81-8.09c.23-1.6.27-5.52-4.57-7.61a40.36,40.36,0,0,0,4.22.27c4.31,0,7.24-1.4,8.72-4.16a8.69,8.69,0,0,0,.86-3,9.51,9.51,0,0,0-1.72-7.33c-2.87-3.91-8.43-5.44-12.58-6a42.84,42.84,0,0,0-6-.43Z"
            fill="#404041"></path>
        <path d="M275.26,96.9c-.69,0-1.4,0-2.11-.06L272,96.73c-5.29-.5-12.36-2.45-14.92-6.29a9.33,9.33,0,0,1-1.55-5.9,8.59,8.59,0,0,1,4-7.08,6.82,6.82,0,0,1,3.47-1,3.1,3.1,0,0,1,.43,0A23.58,23.58,0,0,1,268.75,78a26.16,26.16,0,0,0,5,1.46l.28,0a4.89,4.89,0,0,0,.54,0l.41,0a16.41,16.41,0,0,0-2.55-1.87A50.23,50.23,0,0,1,265.07,72a16.09,16.09,0,0,1-4.65-12.79c.63-8.42,8.21-14.77,17.63-14.77.66,0,1.33,0,2,.1,5.51.53,10.18,2.7,12.81,5.95A9.4,9.4,0,0,1,295,57.56c-.39,3.5-3,5.68-6.86,5.68-.21,0-.43,0-.66,0l-.45,0c-1.15-.13-2.47-.39-3.74-.65s-2.37-.48-3.23-.56l-.32,0h-.23a40.88,40.88,0,0,0,3.78,3.12c5.06,3.88,12,9.19,11.12,16.46C293.26,91.43,286.45,96.9,275.26,96.9Z" fill="#404041"></path>
        <path
            d="M278.05,46.39c.59,0,1.2,0,1.81.09,7.76.75,13.83,5.1,13.17,10.85-.29,2.54-2.15,3.91-4.88,3.91h-.53l-.37,0c-2.12-.23-5.08-1-7-1.21l-.37,0h-.36c-1.38,0-2.49.45-2.58,1.41a2.77,2.77,0,0,0,1,1.85c3.77,4,15.47,9.82,14.49,18.08C291.29,91,284.27,94.9,275.26,94.9c-.65,0-1.32,0-2-.06l-1.06-.1c-5.07-.48-11.38-2.32-13.43-5.41a7.33,7.33,0,0,1-1.22-4.64,6.72,6.72,0,0,1,3-5.51,5,5,0,0,1,2.46-.7h.27c2.45.19,7.36,2.65,10.29,2.93l.29,0a5.79,5.79,0,0,0,.72,0c1.22,0,2.42-.34,2.54-1.62.26-2.71-4.36-3.44-10.71-9.37a14.11,14.11,0,0,1-4-11.18c.55-7.33,7.32-12.92,15.63-12.92m0-4c-10.48,0-18.91,7.15-19.62,16.62a18.09,18.09,0,0,0,5.23,14.36l0,0c.52.48,1,.93,1.51,1.35a10.84,10.84,0,0,0-1.6-.26l-.58,0a8.93,8.93,0,0,0-4.55,1.29,10.68,10.68,0,0,0-4.91,8.62,11.41,11.41,0,0,0,1.92,7.22c3.83,5.66,14.28,6.92,16.34,7.11l.66.06.41,0H273c.75,0,1.5.07,2.23.07,12.16,0,19.87-6.25,21.15-17.16.87-7.27-4.84-12.71-9.72-16.59h.13l.19,0,.18,0,.18,0,.78,0c4.87,0,8.34-2.93,8.85-7.46a11.35,11.35,0,0,0-2.59-8.6c-3-3.66-8.12-6.1-14.17-6.68-.73-.07-1.47-.11-2.19-.11Z"
            fill="#404041"></path>
        <path d="M249.14,94.27c-1.91,0-4.44-.14-6.66-.26-5.21-.3-10.6-.61-10.27-7.64.07-1.34.22-4.48,2.92-5.75a7,7,0,0,0,1.72-1c.12-2.18.25-4.4.39-6.71.16-2.61.32-5.32.48-8.21,0-.8.12-1.68.21-2.57s.17-1.78.21-2.64A11.42,11.42,0,0,0,238,56c-.07-.24-.11-.38-1-.76-2.08-.85-3.19-3.06-3-6.09a9,9,0,0,1,1.28-4.51c1.72-2.56,5.6-2.87,8.37-2.87.81,0,1.69,0,2.76.1l1.72.1c4.49.28,12,.74,11.91,7.52,0,0-.06.88-.06.88a6.64,6.64,0,0,1-4.92,6.4c-.19,1.92-.36,4.36-.47,6l-.46,6.82c-.12,1.83-.33,3.78-.53,5.65s-.39,3.64-.49,5.26a2,2,0,0,0,0,.22c2.83,1.69,4,2.88,3.75,6.84-.27,3.67-2.12,6.06-5.07,6.55A16.53,16.53,0,0,1,249.14,94.27Z" fill="#404041"></path>
        <path
            d="M243.58,43.77c.9,0,1.8,0,2.64.09l1.72.11c6.95.43,10.08,1.65,10,5.49l-.06.77c-.22,3.06-1.71,4.07-3.9,4.76a1.39,1.39,0,0,0-1,1.19c-.21,1.94-.38,4.45-.51,6.47-.16,2.27-.31,4.54-.47,6.82-.24,3.55-.8,7.56-1,10.91a1.86,1.86,0,0,0,.87,2c2.42,1.43,3.09,2,2.87,5-.16,2.23-1,4.33-3.39,4.73a16.25,16.25,0,0,1-2.25.12c-1.79,0-4.19-.13-6.55-.26-6.29-.36-8.6-.94-8.38-5.55.08-1.59.3-3.34,1.77-4,1.76-.82,2.74-1.54,2.85-2.37.25-4.74.59-9.68.89-15.25.08-1.6.33-3.48.42-5.22a13.9,13.9,0,0,0-.22-4.2c-.31-1.07-1-1.53-2.19-2-1.38-.56-1.89-2.19-1.8-4.14a7.35,7.35,0,0,1,.91-3.45c1.1-1.64,3.91-2,6.74-2m0-4h0c-3.21,0-7.74.4-10,3.76a11.27,11.27,0,0,0-1.61,5.53c-.27,5.49,2.82,7.42,4.22,8a19.26,19.26,0,0,1,0,2.31c-.05.81-.13,1.7-.21,2.56s-.17,1.79-.22,2.65c-.15,2.88-.32,5.58-.47,8.17-.12,2-.24,3.87-.34,5.74l-.62.31c-3.8,1.78-4,5.91-4.07,7.46-.43,9,7.14,9.45,12.14,9.73,2.26.13,4.82.27,6.78.27A19.49,19.49,0,0,0,252,96.1c3.89-.65,6.41-3.79,6.74-8.39s-1.24-6.44-3.67-8c.11-1.32.26-2.72.42-4.19.2-1.91.41-3.87.54-5.74l.17-2.61.29-4.21c.09-1.38.21-3.14.34-4.74a8.5,8.5,0,0,0,5-7.66l.06-.77a1.77,1.77,0,0,1,0-.23c.13-8.68-9.27-9.27-13.78-9.55l-1.72-.1c-1.12-.06-2-.1-2.89-.1Z"
            fill="#404041"></path>
        <path d="M222,92.78c-3-.11-6.67-1.78-7.52-9.21,0-.06,0-.12,0-.18,0-2-.1-4.09-.14-6.13-1.91,3.54-4.46,7.37-8.29,7.37h-.36c-4.19-.06-6.72-3.54-8.54-6.94,0,.24,0,.49,0,.73a33.16,33.16,0,0,1-.58,7.75,7.73,7.73,0,0,1-2,3.58c-1.62,1.59-4,2.38-7.13,2.4h0c-4.89,0-7.25-2.64-7.32-8.07v-.4c0-1.36.07-2.66.1-4,.24-10.34.51-22.06,3.22-30.81,1.59-5.33,4.75-8.28,8.88-8.28a9.77,9.77,0,0,1,5.78,2c3,2,4.8,7.21,6.57,12.26a55.45,55.45,0,0,0,2.05,5.32c.52-1,1.17-2.55,1.68-3.79,2.14-5.19,5.06-12.3,11-13.71a9.77,9.77,0,0,1,1.95-.21h.3a9.36,9.36,0,0,1,7.3,4.17c2.55,4,2.72,8.17,2.94,13.44,0,.79.07,1.62.11,2.48.29,6.72.46,11.52.23,16.88-.09,2.17-.31,4.57-.69,7.54a1.87,1.87,0,0,1-.18.61,9.63,9.63,0,0,1-8.93,5.18Z" fill="#404041"></path>
        <path
            d="M192.29,42.62a7.71,7.71,0,0,1,4.61,1.62c4.63,3.09,6.94,18.62,9.7,18.66h0c3.12,0,5-16.33,13.18-18.26a7.61,7.61,0,0,1,1.48-.16h.24a7.29,7.29,0,0,1,5.7,3.28c2.6,4.07,2.4,8.54,2.72,14.91.3,6.85.46,11.54.23,16.7-.1,2.36-.35,4.8-.67,7.37a7.65,7.65,0,0,1-7.13,4H222c-3.74-.13-5.14-3.37-5.6-7.43l-.3-12.64h0c-1.89,0-4.83,11.92-10.11,11.92h-.34c-5.42-.08-7.65-8.59-9.75-11.47-.8,1.6-.81,4.32-.81,7.26a33,33,0,0,1-.52,7.25,5.74,5.74,0,0,1-1.43,2.65c-1.21,1.19-3,1.81-5.74,1.83h-.08c-3.41,0-5.17-1.39-5.23-6.09,0-.14,0-.28,0-.42.31-11,.27-24.56,3.23-34.15,1.15-3.85,3.38-6.87,7-6.87h0m0-4h0c-5,0-8.95,3.55-10.8,9.72-2.78,9-3.06,20.85-3.3,31.32,0,1.32-.06,2.61-.1,3.87v.58c.1,8.3,5.08,10,9.23,10h.11c3.71,0,6.5-1,8.52-3a9.61,9.61,0,0,0,2.47-4.44s0,0,0-.06a18.24,18.24,0,0,0,.48-3,9.49,9.49,0,0,0,6.67,2.93h.4a8.72,8.72,0,0,0,6.43-3.12,2.85,2.85,0,0,0,0,.29c.45,4,2.28,10.73,9.44,11h.48a11.62,11.62,0,0,0,10.74-6.32,4.29,4.29,0,0,0,.36-1.22c.38-3,.6-5.47.7-7.7.23-5.43.05-10.49-.23-17.05-.05-.87-.08-1.69-.11-2.47-.22-5.36-.41-10-3.23-14.41l0-.07a11.36,11.36,0,0,0-8.9-5h-.37a11.38,11.38,0,0,0-2.25.23l-.15,0c-6.65,1.58-9.82,8.71-12.1,14.23-.09-.27-.18-.53-.27-.77-1.86-5.34-3.79-10.86-7.34-13.26a11.64,11.64,0,0,0-6.88-2.33Z"
            fill="#404041"></path>
        <path d="M178,66.67c.16,12.1-5.75,24.1-20.26,24.66-15.37.66-21.52-9.6-22.45-23.34-.89-13.14,6.16-24.45,20.64-25,8.08-.32,14.62,3.23,18.27,8.73C177.05,55.87,177.87,61.58,178,66.67Z" fill="#404041" stroke="#404041" stroke-linecap="round" stroke-linejoin="round" stroke-width="4"></path>
        <path d="M103.25,97.83c-4.39,0-7-2.28-7.68-6.58C94,81,93.16,74.72,92.72,70.79c-.18-1.67-.28-2.84-.36-3.76,0-.57-.09-1-.14-1.45L92,63.64s0-.39,0-.39c-.16-3.51-.33-7.14,2.45-11.82,2.6-4.37,7.82-6.93,15.51-7.62,1.21-.1,2.39-.16,3.52-.16,11.13,0,17.9,5.34,19.06,15.05l.08,1.14a14.94,14.94,0,0,1-8,14.72c.53.56,1,1.11,1.31,1.43.94,1.07,2.06,2.2,3.13,3.28a43.57,43.57,0,0,1,3.69,4A11.11,11.11,0,0,1,135.12,89c.18,2.59-1.5,5.58-6.74,6.19l-.38,0-.67,0c-5.65,0-10.48-5.24-14.36-9.45l-.19-.2c.28,3.68.18,6.27-.82,8.18-1.26,2.53-4.51,3.73-7.12,4A15,15,0,0,1,103.25,97.83Zm7.19-34.1c3.08-.29,4.54-1.58,4.35-3.85-.11-1.25-1.49-1.93-2.74-1.93h-.3a6.15,6.15,0,0,0-1.82.41Z" fill="#404041"></path>
        <path
            d="M113.46,45.65c9.86,0,16,4.41,17.07,13.29,0,.34.05.69.07,1,.57,8.41-5.39,12.55-8.3,13.35-.42.18-1.14.3-1.12.51s.24.33.32.4,2.14,2.13,2.93,3.05c2.23,2.56,5.23,5.2,6.73,7.2a9.07,9.07,0,0,1,2,4.62c.15,2.16-1.59,3.67-5,4.06l-.28,0a4.87,4.87,0,0,1-.54,0c-6.88,0-13-9.93-17.36-13.2a23.75,23.75,0,0,1,.68,4.07c.42,4.51.38,7.11-.46,8.73s-3.23,2.7-5.55,2.94a13.61,13.61,0,0,1-1.39.07c-3.3,0-5.19-1.44-5.7-4.86-1.63-10.9-2.43-16.72-2.84-20.39-.3-2.7-.38-4.1-.5-5.21-.07-.64-.15-1.29-.22-1.94-.16-3.49-.38-6.7,2.16-11,3.17-5.33,10.54-6.34,14-6.64,1.15-.11,2.27-.16,3.34-.16m-3.41,20.11.56,0c3.78-.35,6.49-2.26,6.17-6-.2-2.4-2.51-3.77-4.73-3.77l-.49,0a5.65,5.65,0,0,0-3.73,1.47l.78,8.19c.55.05,1,.13,1.44.13m3.41-24.11h0c-1.19,0-2.43.06-3.7.17-8.37.75-14.1,3.63-17.05,8.58-3.09,5.2-2.89,9.32-2.73,13l0,.25a2.11,2.11,0,0,0,0,.26l.09.88.12,1.06c0,.41.09.85.13,1.4.09.94.19,2.12.38,3.81.44,4,1.29,10.14,2.86,20.54.77,5.26,4.29,8.27,9.65,8.27.57,0,1.17,0,1.79-.09,4.06-.41,7.31-2.32,8.71-5.1a11,11,0,0,0,1.08-4c3.5,3.46,7.62,6.59,12.5,6.59q.42,0,.84,0h.27l.18,0c4.14-.48,8.86-3,8.5-8.31a13.06,13.06,0,0,0-2.78-6.77,44.81,44.81,0,0,0-3.84-4.19c-.95-1-1.93-1.94-2.77-2.88a17,17,0,0,0,6.86-15.28l0-.56,0-.49a1.36,1.36,0,0,0,0-.2c-1.27-10.68-8.94-16.81-21-16.81Zm-1.24,19.62L112.09,60a1.32,1.32,0,0,1,.71.21,1,1,0,0,1-.58,1.11Z"
            fill="#404041"></path>
        <path d="M63.11,102.65c-3.46,0-6.07-1.6-6.81-4.18a173.71,173.71,0,0,1-3.91-19.13c-1-6.36-1.79-13.19-2.52-22.14A2,2,0,0,1,50.16,56c2.33-3.75,8.93-5.9,14.33-6.67a41.09,41.09,0,0,1,5.78-.42c12.5,0,20.37,6.18,21.58,17,1.31,11.67-6.46,20.82-19.41,23l0,.64a65.53,65.53,0,0,1,.07,7.17,1.49,1.49,0,0,1-.05.36c-.75,3.09-4.54,5-7.74,5.5A11.42,11.42,0,0,1,63.11,102.65ZM70,73.27h0c3.56-.49,5.15-3.3,4.84-5.68a4,4,0,0,0-4-3.72,6.27,6.27,0,0,0-.74,0,6.76,6.76,0,0,0-1.36.36Z" fill="#404041"></path>
        <path d="M70.27,50.89c9.45,0,18.32,3.85,19.59,15.18,1.32,11.72-7.42,19.37-18.64,21l-.85.12c.12,3.43.36,6.15.18,9.42-.5,2-3.5,3.6-6.1,4a8.64,8.64,0,0,1-1.34.1c-2.27,0-4.35-.87-4.89-2.74A170.68,170.68,0,0,1,54.36,79c-1.17-7.44-1.92-15-2.5-22,1.75-2.82,7.34-5,12.91-5.75a39,39,0,0,1,5.5-.4m-.42,24.38a3.33,3.33,0,0,0,.46,0c4.54-.63,7-4.32,6.53-7.92a6,6,0,0,0-6-5.46,7.19,7.19,0,0,0-1,.07,6,6,0,0,0-3.24,1.37q.81,5.78,1.64,11.54a2.68,2.68,0,0,0,1.66.43m.42-28.38h0a42.26,42.26,0,0,0-6.07.45c-2.83.39-12.35,2.13-15.74,7.59a4,4,0,0,0-.58,2.43c.73,9,1.52,15.88,2.53,22.29a178.14,178.14,0,0,0,4,19.34c1,3.51,4.35,5.66,8.74,5.66a13.92,13.92,0,0,0,1.93-.14c4-.6,8.41-3,9.39-7a3.58,3.58,0,0,0,.11-.73,60,60,0,0,0,0-6.3c12.83-2.9,20.67-12.8,19.31-24.86C92.52,53.89,83.71,46.89,70.27,46.89Zm1.35,23.69-.05-.39L71,65.87a2,2,0,0,1,1.93,2,3,3,0,0,1-1.26,2.75Z" fill="#404041"></path>
        <path d="M312.06,96.41A36.78,36.78,0,0,1,307,96c-7.93-1.11-13.4-3.79-15.82-7.75-3.3-5.47-2.53-15.64-2-19.76,1-9,4.63-19.65,11.55-22.81a27.37,27.37,0,0,1,10.65-1.81,40.47,40.47,0,0,1,5.73.41c3.77.54,8.79,1.89,11.25,5.23a7.51,7.51,0,0,1,1.36,5.83,7,7,0,0,1-.65,2.36c-1.66,3.12-5.65,3.12-7,3.12a48,48,0,0,1-5.26-.4,44.27,44.27,0,0,0-4.67-.37c-1.22,0-2.73.15-3,.86a8.3,8.3,0,0,0-.39,1.71l1.59.22c4.9.75,10.92,1.68,10.12,7-1.08,7.15-7.9,7.15-10.47,7.15-1.07,0-2.14,0-3.18-.1a2.18,2.18,0,0,0,1.71,2.4c.48.16,2.53.54,3.52.68a34.91,34.91,0,0,0,3.93.27,36.16,36.16,0,0,1,4.22.31,6.27,6.27,0,0,1,4.16,2.48,6.59,6.59,0,0,1,1.16,4.9C325,91.13,322.53,96.41,312.06,96.41Z" fill="#ffc821"></path>
        <path
            d="M311.3,45.91a37.86,37.86,0,0,1,5.44.39c5.65.81,11.81,3.18,10.92,8.77a6.82,6.82,0,0,1-.42,1.7c-.84,1.63-2.81,2.09-5.21,2.09-3.1,0-6.92-.77-9.93-.77-2.34,0-4.19.46-4.87,2.1a10.09,10.09,0,0,0-.53,2.25,10.91,10.91,0,0,0-.11,2l3.41.47c4.72.73,8.93,1.36,8.42,4.74-.71,4.67-4.45,5.45-8.49,5.45-1.67,0-3.4-.13-5-.18l-.12.9c-.28,2.08.11,4.59,3,5.49a38.46,38.46,0,0,0,3.82.75c2.85.41,5.51.17,8.14.57a4.37,4.37,0,0,1,3.65,5.09c-.87,5.38-6.28,6.74-11.42,6.74a36.17,36.17,0,0,1-4.83-.35c-7.3-1-12.34-3.47-14.38-6.82-2.39-3.94-2.58-11.55-1.77-18.48,1-8.79,4.48-18.51,10.4-21.22a25.79,25.79,0,0,1,9.82-1.63m0-4a29.46,29.46,0,0,0-11.48,2c-3.67,1.68-6.71,5.16-9,10.34a49.59,49.59,0,0,0-3.69,14.06c-.63,5.36-1.17,15.24,2.32,21,2.74,4.51,8.71,7.52,17.25,8.71a39.28,39.28,0,0,0,5.38.39,20.92,20.92,0,0,0,9.05-1.75,10.9,10.9,0,0,0,6.32-8.35,8.64,8.64,0,0,0-1.52-6.4,8.3,8.3,0,0,0-5.48-3.28A36.92,36.92,0,0,0,316,78.3h-.4a9.32,9.32,0,0,0,6.81-8.09c.23-1.6.27-5.52-4.57-7.61a40.36,40.36,0,0,0,4.22.27c4.31,0,7.24-1.4,8.72-4.16a8.69,8.69,0,0,0,.86-3,9.51,9.51,0,0,0-1.72-7.33c-2.87-3.91-8.43-5.44-12.58-6a42.84,42.84,0,0,0-6-.43Z"
            fill="#404041"></path>
        <path d="M270.26,91.9c-.69,0-1.4,0-2.11-.06L267,91.73c-5.29-.5-12.36-2.45-14.92-6.29a9.33,9.33,0,0,1-1.55-5.9,8.59,8.59,0,0,1,4-7.08,6.82,6.82,0,0,1,3.47-1,3.1,3.1,0,0,1,.43,0A23.58,23.58,0,0,1,263.75,73a26.16,26.16,0,0,0,5,1.46l.28,0a4.89,4.89,0,0,0,.54,0l.41,0a16.41,16.41,0,0,0-2.55-1.87A50.23,50.23,0,0,1,260.07,67a16.09,16.09,0,0,1-4.65-12.79c.63-8.42,8.21-14.77,17.63-14.77.66,0,1.33,0,2,.1,5.51.53,10.18,2.7,12.81,5.95A9.4,9.4,0,0,1,290,52.56c-.39,3.5-3,5.68-6.86,5.68-.21,0-.43,0-.66,0l-.45,0c-1.15-.13-2.47-.39-3.74-.65s-2.37-.48-3.23-.56l-.32,0h-.23a40.88,40.88,0,0,0,3.78,3.12c5.06,3.88,12,9.19,11.12,16.46C288.26,86.43,281.45,91.9,270.26,91.9Z" fill="#ffc821"></path>
        <path
            d="M273.05,41.39c.59,0,1.2,0,1.81.09,7.76.75,13.83,5.1,13.17,10.85-.29,2.54-2.15,3.91-4.88,3.91h-.53l-.37,0c-2.12-.23-5.08-1-7-1.21l-.37,0h-.36c-1.38,0-2.49.45-2.58,1.41a2.77,2.77,0,0,0,1,1.85c3.77,4,15.47,9.82,14.49,18.08C286.29,86,279.27,89.9,270.26,89.9c-.65,0-1.32,0-2-.06l-1.06-.1c-5.07-.48-11.38-2.32-13.43-5.41a7.33,7.33,0,0,1-1.22-4.64,6.72,6.72,0,0,1,3-5.51,5,5,0,0,1,2.46-.7h.27c2.45.19,7.36,2.65,10.29,2.93l.29,0a5.79,5.79,0,0,0,.72,0c1.22,0,2.42-.34,2.54-1.62.26-2.71-4.36-3.44-10.71-9.37a14.11,14.11,0,0,1-4-11.18c.55-7.33,7.32-12.92,15.63-12.92m0-4c-10.48,0-18.91,7.15-19.62,16.62a18.09,18.09,0,0,0,5.23,14.36l0,0c.52.48,1,.93,1.51,1.35a10.84,10.84,0,0,0-1.6-.26l-.58,0a8.93,8.93,0,0,0-4.55,1.29,10.68,10.68,0,0,0-4.91,8.62,11.41,11.41,0,0,0,1.92,7.22c3.83,5.66,14.28,6.92,16.34,7.11l.66.06.41,0H268c.75,0,1.5.07,2.23.07,12.16,0,19.87-6.25,21.15-17.16.87-7.27-4.84-12.71-9.72-16.59h.13l.19,0,.18,0,.18,0,.78,0c4.87,0,8.34-2.93,8.85-7.46a11.35,11.35,0,0,0-2.59-8.6c-3-3.66-8.12-6.1-14.17-6.68-.73-.07-1.47-.11-2.19-.11Z"
            fill="#404041"></path>
        <path d="M244.14,89.27c-1.91,0-4.44-.14-6.66-.26-5.21-.3-10.6-.61-10.27-7.64.07-1.34.22-4.48,2.92-5.75a7,7,0,0,0,1.72-1c.12-2.18.25-4.4.39-6.71.16-2.61.32-5.32.48-8.21,0-.8.12-1.68.21-2.57s.17-1.78.21-2.64A11.42,11.42,0,0,0,233,51c-.07-.24-.11-.38-1-.76-2.08-.85-3.19-3.06-3-6.09a9,9,0,0,1,1.28-4.51c1.72-2.56,5.6-2.87,8.37-2.87.81,0,1.69,0,2.76.1l1.72.1c4.49.28,12,.74,11.91,7.52,0,0-.06.88-.06.88a6.64,6.64,0,0,1-4.92,6.4c-.19,1.92-.36,4.36-.47,6l-.46,6.82c-.12,1.83-.33,3.78-.53,5.65s-.39,3.64-.49,5.26a2,2,0,0,0,0,.22c2.83,1.69,4,2.88,3.75,6.84-.27,3.67-2.12,6.06-5.07,6.55A16.53,16.53,0,0,1,244.14,89.27Z" fill="#ffc821"></path>
        <path
            d="M238.58,38.77c.9,0,1.8,0,2.64.09l1.72.11c6.95.43,10.08,1.65,10,5.49l-.06.77c-.22,3.06-1.71,4.07-3.9,4.76a1.39,1.39,0,0,0-1,1.19c-.21,1.94-.38,4.45-.51,6.47-.16,2.27-.31,4.54-.47,6.82-.24,3.55-.8,7.56-1,10.91a1.86,1.86,0,0,0,.87,2c2.42,1.43,3.09,2,2.87,5-.16,2.23-1,4.33-3.39,4.73a16.25,16.25,0,0,1-2.25.12c-1.79,0-4.19-.13-6.55-.26-6.29-.36-8.6-.94-8.38-5.55.08-1.59.3-3.34,1.77-4,1.76-.82,2.74-1.54,2.85-2.37.25-4.74.59-9.68.89-15.25.08-1.6.33-3.48.42-5.22a13.9,13.9,0,0,0-.22-4.2c-.31-1.07-1-1.53-2.19-2-1.38-.56-1.89-2.19-1.8-4.14a7.35,7.35,0,0,1,.91-3.45c1.1-1.64,3.91-2,6.74-2m0-4h0c-3.21,0-7.74.4-10,3.76a11.27,11.27,0,0,0-1.61,5.53c-.27,5.49,2.82,7.42,4.22,8a19.26,19.26,0,0,1,0,2.31c-.05.81-.13,1.7-.21,2.56s-.17,1.79-.22,2.65c-.15,2.88-.32,5.58-.47,8.17-.12,2-.24,3.87-.34,5.74l-.62.31c-3.8,1.78-4,5.91-4.07,7.46-.43,9,7.14,9.45,12.14,9.73,2.26.13,4.82.27,6.78.27A19.49,19.49,0,0,0,247,91.1c3.89-.65,6.41-3.79,6.74-8.39s-1.24-6.44-3.67-8c.11-1.32.26-2.72.42-4.19.2-1.91.41-3.87.54-5.74l.17-2.61.29-4.21c.09-1.38.21-3.14.34-4.74a8.5,8.5,0,0,0,5-7.66l.06-.77a1.77,1.77,0,0,1,0-.23c.13-8.68-9.27-9.27-13.78-9.55l-1.72-.1c-1.12-.06-2-.1-2.89-.1Z"
            fill="#404041"></path>
        <path d="M217,87.78c-3-.11-6.67-1.78-7.52-9.21,0-.06,0-.12,0-.18,0-2-.1-4.09-.14-6.13-1.91,3.54-4.46,7.37-8.29,7.37h-.36c-4.19-.06-6.72-3.54-8.54-6.94,0,.24,0,.49,0,.73a33.16,33.16,0,0,1-.58,7.75,7.73,7.73,0,0,1-2,3.58c-1.62,1.59-4,2.38-7.13,2.4h0c-4.89,0-7.25-2.64-7.32-8.07v-.4c0-1.36.07-2.66.1-4,.24-10.34.51-22.06,3.22-30.81,1.59-5.33,4.75-8.28,8.88-8.28a9.77,9.77,0,0,1,5.78,2c3,2,4.8,7.21,6.57,12.26a55.45,55.45,0,0,0,2.05,5.32c.52-1,1.17-2.55,1.68-3.79,2.14-5.19,5.06-12.3,11-13.71a9.77,9.77,0,0,1,1.95-.21h.3a9.36,9.36,0,0,1,7.3,4.17c2.55,4,2.72,8.17,2.94,13.44,0,.79.07,1.62.11,2.48.29,6.72.46,11.52.23,16.88-.09,2.17-.31,4.57-.69,7.54a1.87,1.87,0,0,1-.18.61,9.63,9.63,0,0,1-8.93,5.18Z" fill="#ffc821"></path>
        <path
            d="M187.29,37.62a7.71,7.71,0,0,1,4.61,1.62c4.63,3.09,6.94,18.62,9.7,18.66h0c3.12,0,5-16.33,13.18-18.26a7.61,7.61,0,0,1,1.48-.16h.24a7.29,7.29,0,0,1,5.7,3.28c2.6,4.07,2.4,8.54,2.72,14.91.3,6.85.46,11.54.23,16.7-.1,2.36-.35,4.8-.67,7.37a7.65,7.65,0,0,1-7.13,4H217c-3.74-.13-5.14-3.37-5.6-7.43l-.3-12.64h0c-1.89,0-4.83,11.92-10.11,11.92h-.34c-5.42-.08-7.65-8.59-9.75-11.47-.8,1.6-.81,4.32-.81,7.26a33,33,0,0,1-.52,7.25,5.74,5.74,0,0,1-1.43,2.65c-1.21,1.19-3,1.81-5.74,1.83h-.08c-3.41,0-5.17-1.39-5.23-6.09,0-.14,0-.28,0-.42.31-11,.27-24.56,3.23-34.15,1.15-3.85,3.38-6.87,7-6.87h0m0-4h0c-5,0-8.95,3.55-10.8,9.72-2.78,9-3.06,20.85-3.3,31.32,0,1.32-.06,2.61-.1,3.87v.58c.1,8.3,5.08,10,9.23,10h.11c3.71,0,6.5-1,8.52-3a9.61,9.61,0,0,0,2.47-4.44s0,0,0-.06a18.24,18.24,0,0,0,.48-3,9.49,9.49,0,0,0,6.67,2.93h.4a8.72,8.72,0,0,0,6.43-3.12,2.85,2.85,0,0,0,0,.29c.45,4,2.28,10.73,9.44,11h.48a11.62,11.62,0,0,0,10.74-6.32,4.29,4.29,0,0,0,.36-1.22c.38-3,.6-5.47.7-7.7.23-5.43.05-10.49-.23-17.05-.05-.87-.08-1.69-.11-2.47-.22-5.36-.41-10-3.23-14.41l0-.07a11.36,11.36,0,0,0-8.9-5h-.37a11.38,11.38,0,0,0-2.25.23l-.15,0c-6.65,1.58-9.82,8.71-12.1,14.23-.09-.27-.18-.53-.27-.77-1.86-5.34-3.79-10.86-7.34-13.26a11.64,11.64,0,0,0-6.88-2.33Z"
            fill="#404041"></path>
        <path d="M151.3,88.36c-13.76,0-22-9-23.05-25.24-.54-7.87,1.61-14.93,6-19.89,4-4.48,9.73-7,16.5-7.28l1.1,0c8,0,14.86,3.52,18.93,9.64,2.62,3.81,4,9.23,4.13,16.08.25,19.06-11.79,26.28-22.19,26.68C152.28,88.34,151.78,88.36,151.3,88.36Zm.33-35.46a4.07,4.07,0,0,0-3,1.29c-1.35,1.48-2,4.35-1.82,8.09.17,3.45,1.67,8.6,5.11,8.6h.16c2.38-.09,5.18-1.77,5.06-9.25-.07-7.69-2.65-8.72-5.17-8.72Z" fill="#ffc821"></path>
        <path d="M151.89,37.92c7.61,0,13.76,3.48,17.26,8.75,2.9,4.2,3.72,9.91,3.8,15,.16,12.1-5.75,24.1-20.26,24.66l-1.39,0c-14.35,0-20.16-10-21.06-23.37-.89-13.14,6.16-24.45,20.64-25.05l1,0m0,35h.24c5.88-.23,7.05-6.53,7-11.28-.05-6.2-1.74-10.7-7.17-10.7h-.4c-5.68.23-7,6-6.75,11.47.2,4.19,2.12,10.51,7.1,10.51m0-39q-.58,0-1.17,0c-7.33.3-13.53,3-17.92,7.95-4.8,5.36-7.12,12.94-6.55,21.36,1.18,17.47,10.08,27.1,25.05,27.1.51,0,1,0,1.56,0,7.94-.3,14.41-3.65,18.72-9.67,3.56-5,5.47-11.75,5.37-19s-1.59-13-4.48-17.19c-4.45-6.68-11.95-10.51-20.58-10.51Zm0,35c-1.64,0-3-3.53-3.11-6.7s.33-5.59,1.3-6.65a2.08,2.08,0,0,1,1.62-.63H152c1.16,0,3.11,0,3.17,6.73a13.64,13.64,0,0,1-.89,5.63A2.28,2.28,0,0,1,152,68.88Z" fill="#404041"></path>
        <path d="M98.25,92.83c-4.39,0-7-2.28-7.68-6.58C89,76,88.16,69.72,87.72,65.79c-.18-1.67-.28-2.84-.36-3.76,0-.57-.09-1-.14-1.45L87,58.64s0-.39,0-.39c-.16-3.51-.33-7.14,2.45-11.82,2.6-4.37,7.82-6.93,15.51-7.62,1.21-.1,2.39-.16,3.52-.16,11.13,0,17.9,5.34,19.06,15.05l.08,1.14a14.94,14.94,0,0,1-8,14.72c.53.56,1,1.11,1.31,1.43.94,1.07,2.06,2.2,3.13,3.28a43.57,43.57,0,0,1,3.69,4A11.11,11.11,0,0,1,130.12,84c.18,2.59-1.5,5.58-6.74,6.19l-.38,0-.67,0c-5.65,0-10.48-5.24-14.36-9.45l-.19-.2c.28,3.68.18,6.27-.82,8.18-1.26,2.53-4.51,3.73-7.12,4A15,15,0,0,1,98.25,92.83Zm7.19-34.1c3.08-.29,4.54-1.58,4.35-3.85-.11-1.25-1.49-1.93-2.74-1.93h-.3a6.15,6.15,0,0,0-1.82.41Z" fill="#ffc821"></path>
        <path
            d="M108.46,40.65c9.86,0,16,4.41,17.07,13.29,0,.34,0,.69.07,1,.57,8.41-5.39,12.55-8.3,13.35-.42.18-1.14.3-1.12.51s.24.33.32.4,2.14,2.13,2.93,3.05c2.23,2.56,5.23,5.2,6.73,7.2a9.07,9.07,0,0,1,2,4.62c.15,2.16-1.59,3.67-5,4.06l-.28,0a4.87,4.87,0,0,1-.54,0c-6.88,0-13-9.93-17.36-13.2a23.75,23.75,0,0,1,.68,4.07c.42,4.51.38,7.11-.46,8.73s-3.23,2.7-5.55,2.94a13.61,13.61,0,0,1-1.39.07c-3.3,0-5.19-1.44-5.7-4.86-1.63-10.9-2.43-16.72-2.84-20.39-.3-2.7-.38-4.1-.5-5.21-.07-.64-.15-1.29-.22-1.94-.16-3.49-.38-6.7,2.16-11,3.17-5.33,10.54-6.34,14-6.64,1.15-.11,2.27-.16,3.34-.16m-3.41,20.11.56,0c3.78-.35,6.49-2.26,6.17-6-.2-2.4-2.51-3.77-4.73-3.77l-.49,0a5.65,5.65,0,0,0-3.73,1.47l.78,8.19c.55,0,1,.13,1.44.13m3.41-24.11h0c-1.19,0-2.43.06-3.7.17-8.37.75-14.1,3.63-17.05,8.58-3.09,5.2-2.89,9.32-2.73,13l0,.25a2.11,2.11,0,0,0,0,.26l.09.88.12,1.06c0,.41.09.85.13,1.4.09.94.19,2.12.38,3.81.44,4,1.29,10.14,2.86,20.54.77,5.26,4.29,8.27,9.65,8.27.57,0,1.17,0,1.79-.09,4.06-.41,7.31-2.32,8.71-5.1a11,11,0,0,0,1.08-4c3.5,3.46,7.62,6.59,12.5,6.59q.42,0,.84,0h.27l.18,0c4.14-.48,8.86-3,8.5-8.31a13.06,13.06,0,0,0-2.78-6.77,44.81,44.81,0,0,0-3.84-4.19c-1-1-1.93-1.94-2.77-2.88a17,17,0,0,0,6.86-15.28l0-.56,0-.49a1.36,1.36,0,0,0,0-.2c-1.27-10.68-8.94-16.81-21-16.81Zm-1.24,19.62L107.09,55a1.32,1.32,0,0,1,.71.21,1,1,0,0,1-.58,1.11Z"
            fill="#404041"></path>
        <path d="M58.11,97.65c-3.46,0-6.07-1.6-6.81-4.18a173.71,173.71,0,0,1-3.91-19.13c-1-6.36-1.79-13.19-2.52-22.14A2,2,0,0,1,45.16,51c2.33-3.75,8.93-5.9,14.33-6.67a41.09,41.09,0,0,1,5.78-.42c12.5,0,20.37,6.18,21.58,17,1.31,11.67-6.46,20.82-19.41,23l0,.64a65.53,65.53,0,0,1,.07,7.17,1.49,1.49,0,0,1-.05.36c-.75,3.09-4.54,5-7.74,5.5A11.42,11.42,0,0,1,58.11,97.65ZM65,68.27h0c3.56-.49,5.15-3.3,4.84-5.68a4,4,0,0,0-4-3.72,6.27,6.27,0,0,0-.74,0,6.76,6.76,0,0,0-1.36.36Z" fill="#ffc821"></path>
        <path d="M65.27,45.89c9.45,0,18.32,3.85,19.59,15.18C86.18,72.79,77.44,80.44,66.22,82l-.85.12c.12,3.43.36,6.15.18,9.42-.5,2-3.5,3.6-6.1,4a8.64,8.64,0,0,1-1.34.1c-2.27,0-4.35-.87-4.89-2.74A170.68,170.68,0,0,1,49.36,74c-1.17-7.44-1.92-15-2.5-22,1.75-2.82,7.34-5,12.91-5.75a39,39,0,0,1,5.5-.4m-.42,24.38a3.33,3.33,0,0,0,.46,0c4.54-.63,7-4.32,6.53-7.92a6,6,0,0,0-6-5.46,7.19,7.19,0,0,0-1,.07,6,6,0,0,0-3.24,1.37q.81,5.78,1.64,11.54a2.68,2.68,0,0,0,1.66.43m.42-28.38h0a42.26,42.26,0,0,0-6.07.45c-2.83.39-12.35,2.13-15.74,7.59a4,4,0,0,0-.58,2.43c.73,9,1.52,15.88,2.53,22.29a178.14,178.14,0,0,0,4,19.34c1,3.51,4.35,5.66,8.74,5.66A13.92,13.92,0,0,0,60,99.51c4-.6,8.41-3,9.39-7a3.58,3.58,0,0,0,.11-.73,60,60,0,0,0,0-6.3c12.83-2.9,20.67-12.8,19.31-24.86C87.52,48.89,78.71,41.89,65.27,41.89Zm1.35,23.69-.05-.39L66,60.87a2,2,0,0,1,1.93,2,3,3,0,0,1-1.26,2.75Z" fill="#404041"></path>
        <path d="M125,335H253.83c-10.48-23.52-31.13-55.31-66.24-55.31C153.3,279.69,134.43,310.94,125,335Z" fill="#ffffff"></path>
        <path d="M253.83,335c-10.48-23.52-31.13-55.31-66.24-55.31-30.84,0-49.21,25.28-59.46,47.87" fill="none" stroke="#404041" stroke-linecap="round" stroke-linejoin="round" stroke-width="4"></path>
        <path d="M157.11 285.88L174.34 312.15 186.9 292.2 200.96 312.15 223.75 285.88" fill="none" stroke="#404041" stroke-linecap="round" stroke-linejoin="round" stroke-width="4"></path>
        <path d="M176.43 308.84L179.98 315.27 195.29 315.27 198.22 308.26 186.9 292.2 176.43 308.84z" fill="#8ac440" stroke="#414141" stroke-linecap="round" stroke-linejoin="round" stroke-width="4"></path>
        <path d="M198.6,335a140.94,140.94,0,0,0-3.31-19.73H180s-1.46,8.87-2.86,19.73Z" fill="#8ac440"></path>
        <path d="M198.6,335a140.94,140.94,0,0,0-3.31-19.73H180s-1.46,8.87-2.86,19.73" fill="none" stroke="#414141" stroke-linecap="round" stroke-linejoin="round" stroke-width="4"></path>
        <path d="M313.9,124.83a34,34,0,0,0-60.55-21.16,104,104,0,0,0-123.59,0,34,34,0,1,0-37.7,53.24,104,104,0,1,0,199,0A34,34,0,0,0,313.9,124.83Z" fill="#ffffff" stroke="#404041" stroke-linecap="round" stroke-linejoin="round" stroke-width="4"></path>
        <path d="M238.230 160.550 A23.73 10.83 0 1 0 285.690 160.550 A23.73 10.83 0 1 0 238.230 160.550 Z" fill="#f9c1b6"></path>
        <path d="M97.420 160.550 A23.73 10.83 0 1 0 144.880 160.550 A23.73 10.83 0 1 0 97.420 160.550 Z" fill="#f9c1b6"></path>
        <path d="M191.55 138.17L191.55 154.99" fill="none" stroke="#404041" stroke-linecap="round" stroke-linejoin="round" stroke-width="4"></path>
        <path d="M191.55,143.21l5.62-5.61a2.62,2.62,0,0,0-1.84-4.47h-7.55a2.62,2.62,0,0,0-1.84,4.47Z" fill="#424143" stroke="#404041" stroke-miterlimit="10" stroke-width="4"></path>
        <path d="M137.620 137.920 A7.270 7.270 0 1 0 152.160 137.920 A7.270 7.270 0 1 0 137.620 137.920 Z" fill="#404041"></path>
        <path d="M230.950 137.920 A7.270 7.270 0 1 0 245.490 137.920 A7.270 7.270 0 1 0 230.950 137.920 Z" fill="#404041"></path>
        <path d="M171.08,146.58s3,9.94,20.47,9.94,19.35-9.94,19.35-9.94" fill="none" stroke="#404041" stroke-linecap="round" stroke-linejoin="round" stroke-width="4"></path>
        <path d="M133.28,267c-4.91-1.57-7.26,1.67-7.26,1.67-7.17-13.15-13.42-13.42-17.83-12.44s-4.87,5.95-4.87,5.95-2-2.67-7.78-2.13a9.33,9.33,0,0,0-8.64,7.7c-2.92-12.51-9.33-32.56-20.05-30-15.2,3.65,2.07,61.74,14.53,97.29H138.1l-7.17-17.21s7.85-4.32,10.79-22.58S138.19,268.52,133.28,267Z" fill="#ffffff"></path>
        <path d="M138.1,335l-7.17-17.21s7.85-4.32,10.79-22.58-3.53-26.69-8.44-28.26-7.26,1.67-7.26,1.67c-7.17-13.15-13.42-13.42-17.83-12.44s-4.87,5.95-4.87,5.95-2-2.67-7.78-2.13a9.33,9.33,0,0,0-8.64,7.7c-2.92-12.51-9.33-32.56-20.05-30-15.2,3.65,2.07,61.74,14.53,97.29" fill="none" stroke="#414141" stroke-linecap="round" stroke-linejoin="round" stroke-width="4"></path>
        <path d="M86.9 267.7L88.18 275.14" fill="none" stroke="#404041" stroke-linecap="round" stroke-linejoin="round" stroke-width="4"></path>
        <path d="M103.32,262.13c20.16,14.66,10.66,36.41,1.08,38.92-11.45,3-14.07-15.25-8.07-18.93" fill="none" stroke="#404041" stroke-linecap="round" stroke-linejoin="round" stroke-width="4"></path>
        <path d="M95.27,278.82s0,2.45,3.41,5.73" fill="none" stroke="#404041" stroke-linecap="round" stroke-linejoin="round" stroke-width="4"></path>
        <path d="M126,268.62s8,17.35-12.37,22.72" fill="none" stroke="#404041" stroke-linecap="round" stroke-linejoin="round" stroke-width="4"></path>
        <path d="M109.11,298.25s-4.77,6.58,1.62,17.36" fill="none" stroke="#404041" stroke-linecap="round" stroke-linejoin="round" stroke-width="4"></path>
        <path d="M151.09 321.34L150.55 335" fill="#8ac440" stroke="#414141" stroke-linecap="round" stroke-linejoin="round" stroke-width="4"></path>
        <path d="M220.02 321.34L222.21 335" fill="#8ac440" stroke="#414141" stroke-linecap="round" stroke-linejoin="round" stroke-width="4"></path>
        <path d="M350.53,305c-6.09,5.52-10.64,15.14-12.26,26.64-1.63-11.5-6.18-21.12-12.26-26.64,6.08-5.52,10.63-15.15,12.26-26.66C339.89,289.86,344.44,299.49,350.53,305Z" fill="#f7d43d"></path>
        <path d="M63.53,167.22c-5.8,5.25-10.13,14.4-11.67,25.35-1.55-10.95-5.88-20.1-11.66-25.35C46,162,50.31,152.79,51.86,141.85,53.4,152.79,57.73,162,63.53,167.22Z" fill="#f7d43d"></path>
    </g>
</svg>
