<svg xmlns="http://www.w3.org/2000/svg" version="1.1" viewBox="0 0 140 140">
    <g transform="matrix(0.3783783783783784,0,0,0.3783783783783784,0,0)">
        <path d="M113.11,235.59a.28.28,0,0,1,.11.21.29.29,0,0,1-.11.21L13.35,314.08a2.14,2.14,0,0,1-2,.29,1.63,1.63,0,0,1-1.15-1.48c0-3.34,0-6.49.07-9.64,0-.48.77-1,1.33-1.4,8.08-5.28,16.19-10.51,24.26-15.79,7.37-4.82,14.67-9.7,22-14.51q27.38-17.9,54.77-35.75A4.4,4.4,0,0,1,113.11,235.59Z" fill="#fff48c"></path>
        <path d="M10.16,76.28a1.64,1.64,0,0,1,1.06-1.47,2.2,2.2,0,0,1,2,.17l109.69,71a.38.38,0,0,1,.12.56c-1.82-1-3.66-1.9-5.46-2.89q-24.56-13.48-49.11-27c-9.63-5.28-19.33-10.48-29-15.72L11.67,85.86a2.53,2.53,0,0,1-1.56-2.54C10.19,81,10.18,78.72,10.16,76.28Z" fill="#fff48c"></path>
        <path d="M348.6,34.47a1.93,1.93,0,0,1,1.77,1,1.44,1.44,0,0,1-.38,1.78L243.78,130.09a.51.51,0,0,1-.63,0c2.57-2.56,5.13-5.14,7.72-7.7q11.14-11,22.32-22.07Q293.05,80.68,312.91,61c7.88-7.79,16-15.43,23.56-23.44a9.3,9.3,0,0,1,8.41-3.24C346.09,34.47,347.31,34.48,348.6,34.47Z" fill="#fff48c"></path>
        <path d="M270.21,138.15a.38.38,0,0,1-.13-.34.48.48,0,0,1,.22-.31l86.57-51.92a2.19,2.19,0,0,1,2-.12,1.61,1.61,0,0,1,1,1.44c0,2.34,0,4.55-.07,6.76,0,.45-.82,1-1.41,1.31q-24.09,11.79-48.22,23.54-19.23,9.42-38.39,18.93C271.27,137.69,270.73,137.92,270.21,138.15Z" fill="#fff48c"></path>
        <path d="M35.2,37.12a1.45,1.45,0,0,1-.34-1.75,2,2,0,0,1,1.75-1c2.32,0,4.48,0,6.63.05a2.88,2.88,0,0,1,1.82.83q19.19,20.88,38.3,41.8Q97.17,92.19,111,107.31c.23.26.44.53.66.8a.43.43,0,0,1-.13.64Z" fill="#fff48c"></path>
        <path d="M359.88,289.54a1.61,1.61,0,0,1-1.07,1.46,2.2,2.2,0,0,1-2-.18l-77.44-51.24a.32.32,0,0,1-.1-.45c1.89,1,3.8,1.88,5.67,2.87q23,12.24,46.07,24.5,14,7.44,27.9,15a1.91,1.91,0,0,1,.93,1.36C359.89,285,359.89,287.21,359.88,289.54Z" fill="#fff48c"></path>
        <path d="M27.31,331.15a2,2,0,0,1-1.76-1,1.46,1.46,0,0,1,.37-1.76l101.47-90.65a.57.57,0,0,1,.7,0c-2,1.93-4,3.87-6,5.79-7.77,7.51-15.57,15-23.32,22.52Q80.33,284,61.92,301.93C54.66,309,47.33,316,40.06,323c-2.39,2.3-4.64,4.7-7.09,6.94a4.94,4.94,0,0,1-2.75,1.11C29.27,331.13,28.31,331.15,27.31,331.15Z" fill="#fff48c"></path>
        <path d="M10.2,46.73a1.65,1.65,0,0,1,1.17-1.48,2.13,2.13,0,0,1,2.06.32l102.89,83.66a.37.37,0,0,1,0,.56c-2.36-1.74-4.72-3.47-7.06-5.23q-16.07-12-32.12-24.07C64.86,91.32,52.48,82.21,40.17,73,30.77,66,21.44,59,12,52c-1.33-1-2.1-2-1.93-3.56C10.17,47.86,10.19,47.3,10.2,46.73Z" fill="#fff48c"></path>
        <path d="M203.18,34.52a2.05,2.05,0,0,1,1.43.55,1.48,1.48,0,0,1,.46,1.28q-6.31,42.6-12.6,85a.45.45,0,0,1-.5.34q2.42-42.74,4.82-85.58a1.8,1.8,0,0,1,1.91-1.55Z" fill="#fff48c"></path>
        <path d="M238.55,253a.55.55,0,0,1,.33-.07.49.49,0,0,1,.29.16l60.15,75.54a1.42,1.42,0,0,1,.11,1.67,2,2,0,0,1-1.67.87c-1.7,0-3.29,0-4.87-.08-.59,0-1.3-.74-1.67-1.28-5.18-7.52-10.28-15.08-15.45-22.61q-10.47-15.25-21-30.48-8-11.55-16-23.11A2.67,2.67,0,0,1,238.55,253Z" fill="#fff48c"></path>
        <path d="M127.81,329.91a1.9,1.9,0,0,1-1.82,1.14h-4.67a2,2,0,0,1-1.59-.72,1.43,1.43,0,0,1-.17-1.53q16.45-33.72,32.78-67.18a.63.63,0,0,1,.73-.28Q140.45,295.59,127.81,329.91Z" fill="#fff48c"></path>
        <path d="M332.7,328.44a1.43,1.43,0,0,1,.31,1.74,1.94,1.94,0,0,1-1.74,1c-.95,0-1.85,0-2.76-.09a3.66,3.66,0,0,1-2.08-1.18c-4.78-5-9.48-10.13-14.24-15.18q-15-16-30.07-31.9-11-11.71-21.92-23.48a.21.21,0,0,1,0-.33.32.32,0,0,1,.4,0Z" fill="#fff48c"></path>
        <path d="M217,111.19a.28.28,0,0,1-.22-.35c.72-2.11,1.38-4.23,2.17-6.32q3.23-8.51,6.54-17c2.29-5.89,4.62-11.77,6.89-17.67q5.22-13.52,10.37-27.05c.88-2.3,1.72-4.61,2.63-6.9a2,2,0,0,1,2.43-1.55,21.35,21.35,0,0,0,2.42.08,2,2,0,0,1,1.6.71,1.42,1.42,0,0,1,.2,1.52Z" fill="#fff48c"></path>
        <path d="M95.32,331.09a2,2,0,0,1-1.65-.81,1.4,1.4,0,0,1,0-1.62c13.65-20.47,27.12-40.65,40.59-60.83a.44.44,0,0,1,.55-.14q-3.83,6.92-7.66,13.84l-17,30.56c-3.29,5.89-6.6,11.77-9.86,17.68a2.29,2.29,0,0,1-2.47,1.37C97,331.09,96.18,331.08,95.32,331.09Z" fill="#fff48c"></path>
        <path d="M10.21,149.88a1.56,1.56,0,0,1,.73-1.28,2.15,2.15,0,0,1,1.65-.29l76.05,16.32a.45.45,0,0,1,.39.51l-6.52-1q-8.45-1.28-16.89-2.57c-5.35-.83-10.7-1.71-16.06-2.54C42.8,158,36,157,29.27,156c-5.23-.82-10.45-1.73-15.67-2.59-1.06-.17-2.13-.29-3.19-.45-.09,0-.19-.18-.19-.28C10.21,151.75,10.21,150.85,10.21,149.88Z" fill="#fff48c"></path>
        <path d="M359.91,260.68a1.57,1.57,0,0,1-1,1.08,2,2,0,0,1-1.61,0l-82-38.2a.46.46,0,0,1-.25-.64c2,.78,3.92,1.55,5.86,2.36q22.28,9.34,44.56,18.71c10.6,4.43,21.21,8.86,31.86,13.21C359.17,257.92,360.33,258.79,359.91,260.68Z" fill="#fff48c"></path>
        <path d="M89.21,140.62a.61.61,0,0,1-.71.25c-.69-.23-1.38-.44-2-.71L40.08,120.73c-9.62-4-19.25-8-28.85-12.08a1.76,1.76,0,0,1-1-1.13,11.11,11.11,0,0,1-.08-1.17,1.59,1.59,0,0,1,.93-1.42,2.18,2.18,0,0,1,1.9,0Z" fill="#fff48c"></path>
        <path d="M282.64,191.33a.31.31,0,0,1,.35-.25l74.93,3.19a1.78,1.78,0,0,1,1.82,1.63v1.36a1.54,1.54,0,0,1-.65,1.22,2.14,2.14,0,0,1-1.49.4Z" fill="#fff48c"></path>
        <path d="M12.94,280.91a2,2,0,0,1-1.83.11,1.48,1.48,0,0,1-1-1.33c0-3.91,0-3.88,4-5.82q18.63-9.06,37.24-18.15a1,1,0,0,1,1.18.25.68.68,0,0,1-.23,1Z" fill="#fff48c"></path>
        <path d="M12.5,211.48a2.12,2.12,0,0,1-1.58-.34,1.52,1.52,0,0,1-.7-1.25v-.19a1.73,1.73,0,0,1,1.62-1.6l81.94-10.72a.45.45,0,0,1,.51.31Z" fill="#fff48c"></path>
        <path d="M218.13,329.16a1.43,1.43,0,0,1-.36,1.31,2,2,0,0,1-1.4.63l-.3,0c-1.33.12-1.65-.37-1.84-1.47-.94-5.33-2.07-10.64-3.08-16-.9-4.75-1.72-9.52-2.58-14.28q-1.51-8.43-3-16.88c-1-5.29-1.91-10.58-2.89-15.86-.24-1.31-.52-2.61-.79-3.91a.53.53,0,0,1,.49-.61C207.6,284.4,212.83,306.65,218.13,329.16Z" fill="#fff48c"></path>
        <path d="M11.1,255.64a.77.77,0,0,1-.63,0,.53.53,0,0,1-.31-.46c-.1-3.08-.07-3,3.35-4.27,9.2-3.34,18.37-6.76,27.57-10.12q17.78-6.48,35.57-12.91A.3.3,0,0,1,77,228a.21.21,0,0,1-.13.31Z" fill="#fff48c"></path>
        <path d="M350.76,328.46a.93.93,0,0,1,0,1.45,1.36,1.36,0,0,1-1.71,0l-.2-.18c-5.51-5.17-11.11-10.26-16.75-15.33-9.43-8.48-18.93-16.89-28.36-25.36q-13-11.64-25.84-23.32a.25.25,0,0,1,0-.39.36.36,0,0,1,.46,0Z" fill="#fff48c"></path>
        <path d="M357.06,113.68a2.21,2.21,0,0,1,2,.16,1.5,1.5,0,0,1,.74,1.58c-.25,1.15-1.13,1.47-3.48,2.33-8,2.87-15.88,5.8-23.8,8.73q-16.49,6.11-32.95,12.26a.28.28,0,0,1-.35-.12.21.21,0,0,1,.12-.3Z" fill="#fff48c"></path>
        <path d="M147.21,78.93a.46.46,0,0,1-.52-.24l-18-42a1.45,1.45,0,0,1,.23-1.49,2,2,0,0,1,1.57-.69h1.14a1.89,1.89,0,0,1,1.84,1.2Q140.32,57.26,147.21,78.93Z" fill="#fff48c"></path>
        <path d="M195.22,329.31a1.47,1.47,0,0,1-.51,1.22,2.06,2.06,0,0,1-1.39.52,1.46,1.46,0,0,1-1.56-1.29q-.69-28.33-1.38-56.58a.32.32,0,0,1,.33-.29C192.21,291.64,193.71,310.39,195.22,329.31Z" fill="#fff48c"></path>
        <path d="M357.62,156.19a2.2,2.2,0,0,1,1.57.33,1.52,1.52,0,0,1,.68,1.25c0,1.11-.57,1.22-2.57,1.49-6.2.84-12.41,1.58-18.61,2.39-4.18.54-8.34,1.17-12.52,1.71-4.86.62-9.73,1.17-14.59,1.79-4.53.58-9.05,1.22-13.58,1.83a.26.26,0,0,1-.3-.19.23.23,0,0,1,.21-.26Z" fill="#fff48c"></path>
        <path d="M307.3,34.45a2,2,0,0,1,1.92.78,1.42,1.42,0,0,1-.12,1.8L281.47,68.2a.41.41,0,0,1-.44.09,3.14,3.14,0,0,1,.3-.81q12-16.06,24.07-32.1A3.18,3.18,0,0,1,307.3,34.45Z" fill="#fff48c"></path>
        <path d="M107,92a.62.62,0,0,1-.38.1.55.55,0,0,1-.34-.17L56.43,35.27a.83.83,0,0,1,0-1.12c.88.43,2.06.68,2.61,1.32,9.32,10.86,18.55,21.78,27.81,32.68l18.94,22.29C106.22,90.94,106.56,91.49,107,92Z" fill="#fff48c"></path>
        <path d="M281.9,330.77a1.1,1.1,0,0,1-1.17.16,3,3,0,0,1-1.27-.84c-3.56-5.63-7-11.32-10.53-17-4.69-7.42-9.47-14.81-14.2-22.22-1-1.54-1.92-3.09-2.88-4.63a.43.43,0,0,1,0-.38.55.55,0,0,1,.29-.29Z" fill="#fff48c"></path>
        <path d="M241,329.66a.77.77,0,0,1-.59,1,1,1,0,0,1-1.15-.5l-.06-.15c-2.33-6.83-4.76-13.64-7.22-20.44-2.69-7.48-5.45-14.94-8.17-22.41a.28.28,0,0,1,.22-.35.35.35,0,0,1,.42.18C230,301.17,235.49,315.36,241,329.66Z" fill="#fff48c"></path>
        <path d="M180.53,80.42a.33.33,0,0,1-.35-.29q-1.49-22.27-3-44.58a.79.79,0,0,1,.81-.77.83.83,0,0,1,.91.69v.13c.38,9.84.81,19.69,1.2,29.53.17,4.49.28,9,.41,13.46C180.55,79.2,180.53,79.81,180.53,80.42Z" fill="#fff48c"></path>
        <path d="M46.57,188.6A.44.44,0,0,1,47,189a.41.41,0,0,1-.43.4l-35.37,1.71a.82.82,0,0,1-.89-.64c-.11-.77.11-.78,1.27-.81C23.27,189.28,34.92,188.87,46.57,188.6Z" fill="#fff48c"></path>
        <path d="M303.36,172.93a.37.37,0,0,1,.07-.3.52.52,0,0,1,.31-.16c2.74-.31,5.47-.66,8.22-.93,5.77-.55,11.56-1,17.33-1.59s11.39-1.24,17.09-1.85c4-.43,8-.85,12-1.22a1.17,1.17,0,0,1,.32,0,.58.58,0,0,1,.49.57.59.59,0,0,1-.57.51c-4.62.48-9.25.91-13.87,1.32q-15.11,1.35-30.21,2.66Z" fill="#fff48c"></path>
        <path d="M62.27,152.87a.41.41,0,0,1-.21.29.55.55,0,0,1-.38.05c-2.23-.52-4.46-1-6.68-1.56L27.84,145.2c-5.18-1.23-10.38-2.41-15.54-3.71a12.49,12.49,0,0,1-1.47-.31.6.6,0,0,1-.38-.8.78.78,0,0,1,.91-.39Z" fill="#fff48c"></path>
        <path d="M61.33,209.66a.34.34,0,0,1-.28.37L11.16,220.89a1.2,1.2,0,0,1-1.15-.36c.42-.34.78-.88,1.27-1,6.3-1.27,12.63-2.45,18.93-3.72s12.3-2.56,18.44-3.84c3.7-.78,7.4-1.57,11.1-2.31A7.56,7.56,0,0,1,61.33,209.66Z" fill="#fff48c"></path>
        <path d="M173.06,329.48a1.8,1.8,0,0,1-1.91,1.55,1.31,1.31,0,0,1-.92-.36,1,1,0,0,1-.29-.83c1.36-7.94,2.7-15.79,4.05-23.63a.31.31,0,0,1,.34-.23C173.91,313.76,173.49,321.54,173.06,329.48Z" fill="#fff48c"></path>
        <path d="M359.56,125.38a.84.84,0,0,1-.14,1.17,1.87,1.87,0,0,1-.58.36Q342,132.48,325.1,138q-3.42,1.11-6.86,2.18a.34.34,0,0,1-.42-.16.28.28,0,0,1,.18-.36Z" fill="#fff48c"></path>
        <path d="M88.24,97.24a.29.29,0,0,1,.37,0l10.8,9.18a.17.17,0,0,1,.08.17.25.25,0,0,1-.08.17c-2.28-1.83-4.59-3.62-6.81-5.49C91.08,100,89.69,98.58,88.24,97.24Z" fill="#fff48c"></path>
        <path d="M225.12,67.08a18.29,18.29,0,0,1-.34,2.87c-.14.49-.29,1-.47,1.47a.28.28,0,0,1-.33.15.24.24,0,0,1-.19-.28c.45-1.38.9-2.77,1.34-4.15A0,0,0,0,0,225.12,67.08Z" fill="#fff48c"></path>
        <path d="M71.52,194.33h0l6.21-.53a.73.73,0,0,1,.5.13.52.52,0,0,1,.23.4Z" fill="#fff48c"></path>
        <path d="M272.66,113a.17.17,0,0,0,.19,0l3.95-3.92a.64.64,0,0,1,.41-.17.7.7,0,0,1,.43.15Z" fill="#fff48c"></path>
        <path d="M126.300 130.540 A54.750 54.750 0 1 0 235.800 130.540 A54.750 54.750 0 1 0 126.300 130.540 Z" fill="#ffe500"></path>
        <path d="M187.36,181.7c0-57.41,17.84-52.91,17.84-46.16,0,10.75-48.31,10.75-48.31,0,0-6.75,17.84-11.25,17.84,46.16" fill="none" stroke="#b58b00" stroke-linecap="round" stroke-linejoin="round" stroke-width="4"></path>
        <path d="M126.300 130.540 A54.750 54.750 0 1 0 235.800 130.540 A54.750 54.750 0 1 0 126.300 130.540 Z" fill="none" stroke="#45413c" stroke-linecap="round" stroke-linejoin="round" stroke-width="4"></path>
        <path d="M196.9 209.55L165.19 209.55 161.51 181.69 200.58 181.69 196.9 209.55z" fill="#8ca4b8" stroke="#45413c" stroke-linecap="round" stroke-linejoin="round" stroke-width="4"></path>
        <path d="M189.55,209.55a8.5,8.5,0,0,1-17,0Z" fill="#656769" stroke="#45413c" stroke-linecap="round" stroke-linejoin="round" stroke-width="4"></path>
        <path d="M151.45,115.18a6.63,6.63,0,0,1-6.45,2.38,4.53,4.53,0,0,1-3.64-4.7c.31-7.86,4.76-16,12.51-21.3s17.24-6.57,24.76-3.85a4.55,4.55,0,0,1,3,5.12,6.66,6.66,0,0,1-4.56,5.1A53.33,53.33,0,0,0,151.45,115.18Z" fill="#fff48c"></path>
        <path d="M189.55,45.38c0,5.73-8.5,19.09-8.5,19.09s-8.5-13.36-8.5-19.09,3.8-8.38,8.5-8.38S189.55,39.65,189.55,45.38Z" fill="#ffe500" stroke="#ebcb00" stroke-linecap="round" stroke-linejoin="round" stroke-width="4"></path>
        <path d="M126.84,64.31c4,4,7.49,19.51,7.49,19.51s-15.46-3.44-19.51-7.49-3.23-8.61.09-11.93S122.79,60.26,126.84,64.31Z" fill="#ffe500" stroke="#ebcb00" stroke-linecap="round" stroke-linejoin="round" stroke-width="4"></path>
        <path d="M95.89,122c5.73,0,19.09,8.5,19.09,8.5S101.62,139,95.89,139s-8.38-3.81-8.38-8.5S90.15,122,95.89,122Z" fill="#ffe500" stroke="#ebcb00" stroke-linecap="round" stroke-linejoin="round" stroke-width="4"></path>
        <path d="M235.25,64.31c-4.05,4-7.49,19.51-7.49,19.51s15.46-3.44,19.51-7.49,3.24-8.61-.08-11.93S239.3,60.26,235.25,64.31Z" fill="#ffe500" stroke="#ebcb00" stroke-linecap="round" stroke-linejoin="round" stroke-width="4"></path>
        <path d="M266.21,122c-5.73,0-19.09,8.5-19.09,8.5s13.36,8.5,19.09,8.5,8.37-3.81,8.37-8.5S271.94,122,266.21,122Z" fill="#ffe500" stroke="#ebcb00" stroke-linecap="round" stroke-linejoin="round" stroke-width="4"></path>
        <path d="M215.47,333s-1.18-17.93-.8-17.95c8.94,1,16.41-.32,19-5,10.15-18.58-12.48-30.76-12.48-30.76a86.11,86.11,0,0,0,48.4-77.44c0-13.39-172.2-13.39-172.2,0a86.12,86.12,0,0,0,48.41,77.44s-17.16,6.15-14.62,23.85c1,7.2,10.29,12.7,21.64,15.78.1,0-1,14.12-1,14.12" fill="#ffffff"></path>
        <path d="M201.86,210a44,44,0,0,0,50.46,43.58,85.7,85.7,0,0,0,17.26-51.73Z" fill="#e0e0e0"></path>
        <path d="M97.38,201.81a85.71,85.71,0,0,0,17.27,51.73A44,44,0,0,0,165.1,210Z" fill="#e0e0e0"></path>
        <path d="M215.47,333s-1.18-17.93-.8-17.95c8.94,1,16.41-.32,19-5,10.15-18.58-12.48-30.76-12.48-30.76a86.11,86.11,0,0,0,48.4-77.44c0-13.39-172.2-13.39-172.2,0a86.12,86.12,0,0,0,48.41,77.44s-17.16,6.15-14.62,23.85c1,7.2,10.29,12.7,21.64,15.78.1,0-1,14.12-1,14.12" fill="none" stroke="#45413c" stroke-linecap="round" stroke-linejoin="round" stroke-width="4"></path>
        <path d="M90.280 208.910 A36.590 36.590 0 1 0 163.460 208.910 A36.590 36.590 0 1 0 90.280 208.910 Z" fill="#ffffff" stroke="#45413c" stroke-linecap="round" stroke-linejoin="round" stroke-width="4"></path>
        <path d="M122.560 208.910 A4.310 4.310 0 1 0 131.180 208.910 A4.310 4.310 0 1 0 122.560 208.910 Z" fill="#45413c"></path>
        <path d="M203.510 208.910 A36.590 36.590 0 1 0 276.690 208.910 A36.590 36.590 0 1 0 203.510 208.910 Z" fill="#ffffff" stroke="#45413c" stroke-linecap="round" stroke-linejoin="round" stroke-width="4"></path>
        <path d="M235.790 208.910 A4.310 4.310 0 1 0 244.410 208.910 A4.310 4.310 0 1 0 235.790 208.910 Z" fill="#45413c"></path>
        <path d="M97.28,170.11c.51-7,10.41-12.3,17.31-8.9" fill="none" stroke="#45413c" stroke-linecap="round" stroke-linejoin="round" stroke-width="4"></path>
        <path d="M269.68,170.11c-.5-7-10.41-12.3-17.31-8.9" fill="none" stroke="#45413c" stroke-linecap="round" stroke-linejoin="round" stroke-width="4"></path>
        <path d="M168.39,229c0,10,6.76,18.11,15.09,18.11s15.1-8.11,15.1-18.11Z" fill="#ffa694" stroke="#45413c" stroke-linecap="round" stroke-linejoin="round" stroke-width="4"></path>
        <path d="M214.67,315.05c-20.91-2.3-49.93-17.11-43.62-29.95,9-18.33,37,7,37,7" fill="none" stroke="#45413c" stroke-linecap="round" stroke-linejoin="round" stroke-width="4"></path>
        <path d="M156.05,293.44c-.67,9,42.95-1,42.53,16-.32,12.87-26.16,14.77-45.77,9.44" fill="#ffffff" stroke="#45413c" stroke-linecap="round" stroke-linejoin="round" stroke-width="4"></path>
    </g>
</svg>
