<svg xmlns="http://www.w3.org/2000/svg" version="1.1" viewBox="0 0 140 140">
    <g transform="matrix(0.3783783783783784,0,0,0.3783783783783784,0,0)">
        <path d="M346.81,246.41c0,78.35-63.51,81.24-141.86,81.24S63.1,324.76,63.1,246.41a141.86,141.86,0,0,1,283.71,0Z" fill="#acdae5"></path>
        <path d="M320.53,42.1H21a5.51,5.51,0,0,0-5.51,5.51v68.93A5.51,5.51,0,0,0,21,122.05H73a162.47,162.47,0,0,0,53.49,35.53c-10.13-12.13-18-23-23.7-35.53H320.53a5.51,5.51,0,0,0,5.51-5.51V47.61A5.5,5.5,0,0,0,320.53,42.1Z" fill="#ffffff" stroke="#404041" stroke-linecap="round" stroke-linejoin="round" stroke-width="4"></path>
        <path d="M60.43,80.05c0,7.22-3.59,14.4-12.2,14.4-9.1,0-12.32-6.43-12.32-14.66,0-7.89,4.35-14.32,12.41-14.32A11.47,11.47,0,0,1,58.42,71C60,73.57,60.43,77,60.43,80.05Zm-12-6.81c-3.21,0-4.13,3.38-4.13,6.68,0,2.55,1,6.47,4,6.47,3.43,0,4.22-3.76,4.26-6.6C52.58,76,51.66,73.24,48.4,73.24Z" fill="#f0543e"></path>
        <path d="M71,82.05a87.37,87.37,0,0,1-.67,9.86A3.76,3.76,0,0,1,67,94.49c-.08,0-.17,0-.25,0C63.27,94,63,85.56,63,81.3V79.54a69.94,69.94,0,0,1,.63-8.89c.37-3.13,2.5-4.47,4.09-4.47,2.17,0,4.09,1.17,5.72,3.42,1.42,2,5.18,8.86,6.68,11.11v-.5c0-1-.16-2-.16-3.13,0-4.93.12-10.82,4.42-10.82a2.53,2.53,0,0,1,2.3,1.59c.79,1.42.84,5.85.84,9.15v.83c0,5.47-.71,10.78-2.38,14.54a4.12,4.12,0,0,1-3.47,1.87c-4.34-.08-8.1-9.89-10.61-13.9Z" fill="#f0543e"></path>
        <path d="M111.14,86.69h.16c.84,0,1.8-.21,1.8-1.13,0-1.63-2.72-1.8-6.64-5a8.57,8.57,0,0,1-2.8-6.48,8.85,8.85,0,0,1,9.15-8.56c4.34,0,8,2.17,8,5.64A2.59,2.59,0,0,1,118,73.82h-.21c-1.21,0-2.93-.29-4-.29h-.21c-.88,0-1.59.38-1.59,1a1.7,1.7,0,0,0,.67,1C115,77.75,122,80.46,122,85.43c0,6.31-4.42,9.06-10.31,9.27h-.63c-3,0-6.8-.79-8.14-2.54a4.42,4.42,0,0,1-.92-2.72,4.08,4.08,0,0,1,1.5-3.42,2.74,2.74,0,0,1,1.55-.55C106.46,85.47,109.42,86.69,111.14,86.69Z" fill="#f0543e"></path>
        <path d="M146.22,71.61a3.22,3.22,0,0,1-3.47,3.51,6,6,0,0,1-1.92-.38,12,12,0,0,0-4-1.13c-4.51,0-5.72,3.64-5.72,6.44s1.88,5.67,5.14,5.8c4.17.17,5.22-3,8.06-3a5.77,5.77,0,0,1,.83,0,2.45,2.45,0,0,1,2,2.5,5.8,5.8,0,0,1-.17,1.46c-1,4.68-6.68,7.23-10.82,7.23-7.81,0-12.65-7-12.65-14.12,0-7.81,4.84-14.28,13-14.49A12.52,12.52,0,0,1,144,67.68,4.83,4.83,0,0,1,146.22,71.61Z" fill="#f0543e"></path>
        <path d="M163,91.91a33.31,33.31,0,0,1-.38-5.6c0-2.92-.46-3.34-2.38-3.34s-2.75.29-2.75,2.25c0,1.72.2,2.93.2,4.14,0,2.38-.83,4.68-3,4.68a3.6,3.6,0,0,1-2.13-.71c-1.17-.84-2-2.89-2.47-5.18a45.21,45.21,0,0,1-.79-8.77c0-2,.12-5,.38-7.4a13.43,13.43,0,0,1,.7-3.8A3.77,3.77,0,0,1,154,65.8c2.34,0,3.34,1.42,3.34,3.51v3.8c0,2.09.25,3.59,2.21,3.59,2.84,0,3.09-.87,3.09-5.09v-.88c0-3.13,1.67-5.18,4.39-5.18,2.34,0,3.63,1,3.92,4.3.09.92.13,2.26.13,3.85a123.46,123.46,0,0,1-1.13,17.12c-.33,2-1.17,3.47-3.21,3.47C165,94.29,163.34,93.87,163,91.91Z" fill="#f0543e"></path>
        <path d="M184,77c2.71,0,5.14,0,5.14,2.09,0,4-4.14,3.93-7.23,4.26v.55c0,1.25.42,2.71,2.17,3a19,19,0,0,0,2.26.13c1.67,0,3.17-.38,4.72-.38a2.58,2.58,0,0,1,2.54,2.67c0,4.35-5.34,5.22-8.85,5.22-4.34,0-7.48-1.08-8.89-2.92-1.68-2.17-2.3-6.68-2.3-10.86,0-5.3,1.29-11.31,4.38-13.36a16.88,16.88,0,0,1,8.36-2c3.17,0,6.76.83,6.76,4.21a4.65,4.65,0,0,1-.08,1.05c-1.09,3.46-10.07.42-10.9,3.76a7.45,7.45,0,0,0,0,2.54Z" fill="#f0543e"></path>
        <path d="M217.35,80.38c0,8.31-4.76,14.07-13.78,14.07-4.47,0-7.6-.87-7.81-5.76V68.43a2.21,2.21,0,0,1,.79-1.79c1.38-1.17,4.18-1.21,5.68-1.21A14.64,14.64,0,0,1,217.35,80.38Zm-12.86-6.89a1.64,1.64,0,0,0-1.26.58V85.14a1.67,1.67,0,0,0,1.17.33c2.51,0,4.43-2.71,4.43-6,0-2.93-1.59-5.93-4.05-5.93Z" fill="#f0543e"></path>
        <path d="M230.67,85.22c2.05,0,2.38-3.34,2.55-5,.25-2.21.21-7.39.67-9.31.5-2.13,1.33-3.39,3.71-3.39,1.76,0,2.59,1.13,3.22,2.55,1.05,2.38,1.09,7.69,1.09,9.61a19.55,19.55,0,0,1-2,8.73c-1.58,2.79-4.59,6.26-9.56,6.26-7,0-9.65-5.8-10.32-11a70.29,70.29,0,0,1-.46-8.86,32.12,32.12,0,0,1,.3-5.13c.41-2.8,3-4.14,5.47-4.14a7.87,7.87,0,0,1,1.08.09c2.17.45,2.76,3,2.76,5.42,0,2.64-.34,6.39-.25,10.49C228.88,83.93,229.71,85.22,230.67,85.22Z" fill="#f0543e"></path>
        <path d="M248.67,65.55c2.39,0,4.26.25,4.51,3.59,0,.34,0,.67,0,1,0,1.5-.42,8.52-.42,12.53a10.32,10.32,0,0,0,.21,2.63c2.67.54,5,0,7.56.79A2.65,2.65,0,0,1,262.5,89c0,5.35-2.92,5.43-7.23,5.43-.87,0-1.29,0-1.63,0-4.92-.12-8.22-1.46-8.89-6.1a57.74,57.74,0,0,1-.54-8.06A100.09,100.09,0,0,1,245.08,68C245.5,65.89,247.76,65.55,248.67,65.55Z" fill="#f0543e"></path>
        <path d="M274.44,77c2.72,0,5.14,0,5.14,2.09,0,4-4.13,3.93-7.22,4.26v.55c0,1.25.41,2.71,2.17,3a19,19,0,0,0,2.25.13c1.67,0,3.18-.38,4.72-.38a2.58,2.58,0,0,1,2.55,2.67c0,4.35-5.35,5.22-8.85,5.22-4.35,0-7.48-1.08-8.9-2.92-1.67-2.17-2.3-6.68-2.3-10.86,0-5.3,1.3-11.31,4.39-13.36a16.84,16.84,0,0,1,8.35-2c3.18,0,6.77.83,6.77,4.21a4.15,4.15,0,0,1-.09,1.05c-1.08,3.46-10.06.42-10.9,3.76a6.67,6.67,0,0,0-.12,1.38,7.18,7.18,0,0,0,.08,1.16Z" fill="#f0543e"></path>
        <path d="M297.67,64.38a8.34,8.34,0,0,1,3.76.88,5.23,5.23,0,0,1,2.79,3.59,12.46,12.46,0,0,1,.42,3.47c0,4.63-1.63,10.36-2.8,12.24-.75,1.21-1.83,2.33-3.17,2.33a2.45,2.45,0,0,1-1.5-.41c-2.22-1.51-2.59-5-2.59-9.4,0-2,.08-4.13.08-6.43l-.08-1.76c0-.41-.05-1.25-.05-1.62v-.42a4.52,4.52,0,0,1,.13-1.09C295.12,64.76,296.33,64.38,297.67,64.38Zm1.58,24c1.72,0,3.3,1,3.3,2.79,0,2.47-2.17,3.55-4.34,3.55a3,3,0,0,1-3-2.75,3.51,3.51,0,0,1,2.25-3.22A4.26,4.26,0,0,1,299.25,88.36Z" fill="#f0543e"></path>
        <path d="M200.54,329.14V292c-10.62.92-32.3,30.37-32.3,30.37-1.56-3.63-3.47-7.42-3.47-7.42-4.12-8.67-8.52-17.09-10.1-18.84-2.94-3.28-7.2-1.53-7.2-1.53s-1.09-2.18-4.91-1.75a6.71,6.71,0,0,0-5.23,3.5c-8.63.19,1.34,27.3,3.46,32.82Z" fill="#e6e7e8"></path>
        <path d="M200.54,318.64V292c-10.62.92-32.3,30.37-32.3,30.37-1.56-3.63-3.47-7.42-3.47-7.42-4.12-8.67-8.52-17.09-10.1-18.84-2.94-3.28-7.2-1.53-7.2-1.53s-1.09-2.18-4.91-1.75a6.71,6.71,0,0,0-5.23,3.5c-8.63.19,1.34,27.3,3.46,32.82" fill="none" stroke="#404041" stroke-linecap="round" stroke-linejoin="round" stroke-width="4"></path>
        <path d="M258.46,329.14c-.44-8.85-4-51.6-31.44-51.73-36.75-.18-36.75,51.47-36.75,51.47l9.77.26Z" fill="#ffffff"></path>
        <path d="M227,277.41c-14.58-.07-23.37,8-28.67,17.81a86.16,86.16,0,0,0,52.34-.32C246.06,285.28,238.72,277.46,227,277.41Z" fill="#e6e7e8"></path>
        <path d="M201.15,290.69c2.73,3.79,5.47,7.53,5.67,7.53s.81-.85,1.84-2" fill="none" stroke="#404041" stroke-linecap="round" stroke-linejoin="round" stroke-width="4"></path>
        <path d="M223.38 329.14L220.57 302.06 212.02 302.06 209.21 329.14 223.38 329.14z" fill="#8bc53f"></path>
        <path d="M223.38 329.14L220.57 302.06 212.02 302.06 209.21 329.14" fill="none" stroke="#404041" stroke-linecap="round" stroke-linejoin="round" stroke-width="4"></path>
        <path d="M224.34,296.19l-3.91,5.86H212l-3.38-5.86c2.81-3.26,7.83-9.22,7.83-9.22S221.51,292.93,224.34,296.19Z" fill="#8bc53f" stroke="#404041" stroke-linecap="round" stroke-linejoin="round" stroke-width="4"></path>
        <path d="M224.34,296.19c1,1.18,1.77,2,1.85,2,.28,0,12.09-8,18.62-12.47" fill="none" stroke="#404041" stroke-linecap="round" stroke-linejoin="round" stroke-width="4"></path>
        <path d="M190.27,328.88s0-51.65,36.75-51.47c30.59.14,31.5,53.34,31.5,53.34" fill="none" stroke="#404041" stroke-linecap="round" stroke-linejoin="round" stroke-width="4"></path>
        <path d="M332.62,150.38a28.57,28.57,0,0,0-53.76-16.53,86.39,86.39,0,0,0-92.19-11.16,28.57,28.57,0,1,0-37,33.73,86.5,86.5,0,1,0,157,19A28.59,28.59,0,0,0,332.62,150.38Z" fill="#ffffff"></path>
        <path d="M213.6,264.58a86.53,86.53,0,0,1-75.4-74.77c0,.17-.06.33-.08.5a86.5,86.5,0,1,0,171.66-.59A86.5,86.5,0,0,1,213.6,264.58Z" fill="#e6e7e8"></path>
        <path d="M332.62,150.38a28.57,28.57,0,0,0-53.76-16.53,86.39,86.39,0,0,0-92.19-11.16,28.57,28.57,0,1,0-37,33.73,86.5,86.5,0,1,0,157,19A28.59,28.59,0,0,0,332.62,150.38Z" fill="none" stroke="#404041" stroke-linecap="round" stroke-linejoin="round" stroke-width="4"></path>
        <path d="M273.760 205.910 A9.08 19.9 0 1 0 291.920 205.910 A9.08 19.9 0 1 0 273.760 205.910 Z" fill="#f9c1b6" transform="translate(44.44 461.96) rotate(-83.1)"></path>
        <path d="M156.530 191.720 A9.08 19.9 0 1 0 174.690 191.720 A9.08 19.9 0 1 0 156.530 191.720 Z" fill="#f9c1b6" transform="translate(-44.62 333.1) rotate(-83.1)"></path>
        <path d="M226.48 180.19L225.89 189.62" fill="none" stroke="#404041" stroke-linecap="round" stroke-linejoin="round" stroke-width="4"></path>
        <path d="M226,184.38l5.24-4.11a2.19,2.19,0,0,0-1.08-3.9l-6.28-.76a2.19,2.19,0,0,0-2,3.53Z" fill="#424143" stroke="#404041" stroke-miterlimit="10" stroke-width="4"></path>
        <path d="M181.550 175.270 A6.100 6.100 0 1 0 193.750 175.270 A6.100 6.100 0 1 0 181.550 175.270 Z" fill="#404041"></path>
        <path d="M259.260 184.680 A6.100 6.100 0 1 0 271.460 184.680 A6.100 6.100 0 1 0 259.260 184.680 Z" fill="#404041"></path>
        <path d="M225.79,190.5l-17.3-2.1-1.88,15.5a17.35,17.35,0,0,0,14.75,19.31l.46,0,.46.06a17.34,17.34,0,0,0,18.93-15.23l1.87-15.5Z" fill="#e15f5f" stroke="#404041" stroke-linecap="round" stroke-linejoin="round" stroke-width="4"></path>
        <path d="M219,201.9A37.78,37.78,0,0,0,206.6,204a17.35,17.35,0,0,0,14.76,19.18l.46,0,.46.06A17.31,17.31,0,0,0,241,209,37.55,37.55,0,0,0,219,201.9Z" fill="#ef8e8e"></path>
        <path d="M225.79,190.5l-17.3-2.1-1.88,15.5a17.35,17.35,0,0,0,14.75,19.31l.46,0,.46.06a17.34,17.34,0,0,0,18.93-15.23l1.87-15.5Z" fill="none" stroke="#404041" stroke-linecap="round" stroke-linejoin="round" stroke-width="4"></path>
        <path d="M270.37,266.68s-2.89-23.52,14.3-26.79,4.09,28.92,5.46,34.38c0,0,6,4.64,5.46,8.73a9,9,0,0,1-3.28,6s7.1,5.46,5.73,12-6,7.09-6,7.09,4.09,2.46,1.91,8.46-14.41,6.66-30,5S248.92,305,254.11,303.9c0,0-10.64-1.91-9.82-12s10.36-7.81,10.36-7.81-7.75-2.18-7.36-10.37S259.69,264.28,270.37,266.68Z" fill="#ffffff" stroke="#404041" stroke-linecap="round" stroke-linejoin="round" stroke-width="4"></path>
        <path d="M254.11,303.9s12.93,2.9,20.71,1.75" fill="none" stroke="#404041" stroke-linecap="round" stroke-linejoin="round" stroke-width="4"></path>
        <path d="M254.65,284.09s13.26,2.75,20.17,2.75" fill="none" stroke="#404041" stroke-linecap="round" stroke-linejoin="round" stroke-width="4"></path>
        <path d="M270.37,266.68a109,109,0,0,1,19.76,7.59" fill="none" stroke="#404041" stroke-linecap="round" stroke-linejoin="round" stroke-width="4"></path>
        <path d="M99,261.5a3.49,3.49,0,0,0-3.36,5.09l20.31,39.26a7,7,0,0,0,5.35,3.72l82.52,10.18a3.49,3.49,0,0,0,3.47-5.18L182.7,271a7,7,0,0,0-5.55-3.53Z" fill="#929497"></path>
        <path d="M176.36,279a7,7,0,0,0-5.55-3.53l-73.5-5.62,18.61,36a7,7,0,0,0,5.35,3.72L199,319.16Z" fill="#6d6e70" stroke="#58595b" stroke-miterlimit="10" stroke-width="4"></path>
        <path d="M99,261.5a3.49,3.49,0,0,0-3.36,5.09l20.31,39.26a7,7,0,0,0,5.35,3.72l82.52,10.18a3.49,3.49,0,0,0,3.47-5.18L182.7,271a7,7,0,0,0-5.55-3.53Z" fill="none" stroke="#404041" stroke-linecap="round" stroke-linejoin="round" stroke-width="4"></path>
        <path d="M154.67,296.1c-2.94-3.28-7.2-1.53-7.2-1.53s-1.09-2.18-4.91-1.75a6.71,6.71,0,0,0-5.23,3.5c-8.63.19,1.34,27.3,3.46,32.82h29.84C166.08,317.81,158.18,300,154.67,296.1Z" fill="#e6e7e8"></path>
        <path d="M170.63,329.14c-4.55-11.33-12.45-29.14-16-33-2.94-3.28-7.2-1.53-7.2-1.53s-1.09-2.18-4.91-1.75a6.71,6.71,0,0,0-5.23,3.5c-8.63.19,1.34,27.3,3.46,32.82" fill="none" stroke="#404041" stroke-linecap="round" stroke-linejoin="round" stroke-width="4"></path>
        <path d="M147.47,294.57s-2.6,1.09-1.35,4.14l1.35,5.13" fill="none" stroke="#404041" stroke-linecap="round" stroke-linejoin="round" stroke-width="4"></path>
        <path d="M137.33,296.32a6,6,0,0,0,0,3.95c.68,2.56,1,3.57,1,3.57" fill="none" stroke="#404041" stroke-linecap="round" stroke-linejoin="round" stroke-width="4"></path>
    </g>
</svg>
