<svg xmlns="http://www.w3.org/2000/svg" version="1.1" viewBox="0 0 140 140">
    <g transform="matrix(0.3783783783783784,0,0,0.3783783783783784,0,0)">
        <path d="M23.440 38.400 L346.560 38.400 L346.560 314.470 L23.440 314.470 Z" fill="#ccae82"></path>
        <path d="M23.44 137.58H346.56V151.64000000000001H23.44z" fill="#f1e8c1"></path>
        <path d="M31.090 68.060 L55.490 68.060 L55.490 140.230 L31.090 140.230 Z" fill="#f1e8c1"></path>
        <path d="M118.810 68.060 L143.210 68.060 L143.210 140.230 L118.810 140.230 Z" fill="#f1e8c1"></path>
        <path d="M311.770 68.060 L336.170 68.060 L336.170 140.230 L311.770 140.230 Z" fill="#f1e8c1"></path>
        <path d="M211.990 68.060 L228.440 68.060 L228.440 140.230 L211.990 140.230 Z" fill="#f1e8c1"></path>
        <path d="M233.020 68.060 L249.470 68.060 L249.470 140.230 L233.020 140.230 Z" fill="#f1e8c1"></path>
        <path d="M148.490 57.460 L159.640 57.460 L159.640 140.230 L148.490 140.230 Z" fill="#f1e8c1"></path>
        <path d="M164.540 57.460 L175.690 57.460 L175.690 140.230 L164.540 140.230 Z" fill="#f1e8c1"></path>
        <path d="M180.650 57.460 L191.800 57.460 L191.800 140.230 L180.650 140.230 Z" fill="#f1e8c1"></path>
        <path d="M196.700 57.460 L207.850 57.460 L207.850 140.230 L196.700 140.230 Z" fill="#f1e8c1"></path>
        <path d="M61.130 52.160 L85.530 52.160 L85.530 140.240 L61.130 140.240 Z" fill="#f1e8c1"></path>
        <path d="M90.110 52.160 L114.510 52.160 L114.510 140.240 L90.110 140.240 Z" fill="#f1e8c1"></path>
        <path d="M254.100 52.160 L278.500 52.160 L278.500 140.240 L254.100 140.240 Z" fill="#f1e8c1"></path>
        <path d="M283.080 52.160 L307.480 52.160 L307.480 140.240 L283.080 140.240 Z" fill="#f1e8c1"></path>
        <path d="M225.280 181.450 L249.680 181.450 L249.680 253.620 L225.280 253.620 Z" fill="#f1e8c1"></path>
        <path d="M312.990 181.450 L337.390 181.450 L337.390 253.620 L312.990 253.620 Z" fill="#f1e8c1"></path>
        <path d="M195.890 181.450 L220.290 181.450 L220.290 253.620 L195.890 253.620 Z" fill="#f1e8c1"></path>
        <path d="M96.110 181.450 L112.560 181.450 L112.560 253.620 L96.110 253.620 Z" fill="#f1e8c1"></path>
        <path d="M117.140 181.450 L133.590 181.450 L133.590 253.620 L117.140 253.620 Z" fill="#f1e8c1"></path>
        <path d="M32.610 170.850 L43.760 170.850 L43.760 253.620 L32.610 253.620 Z" fill="#f1e8c1"></path>
        <path d="M48.660 170.850 L59.810 170.850 L59.810 253.620 L48.660 253.620 Z" fill="#f1e8c1"></path>
        <path d="M64.770 170.850 L75.920 170.850 L75.920 253.620 L64.770 253.620 Z" fill="#f1e8c1"></path>
        <path d="M80.820 170.850 L91.970 170.850 L91.970 253.620 L80.820 253.620 Z" fill="#f1e8c1"></path>
        <path d="M255.320 165.540 L279.720 165.540 L279.720 253.620 L255.320 253.620 Z" fill="#f1e8c1"></path>
        <path d="M284.300 165.540 L308.700 165.540 L308.700 253.620 L284.300 253.620 Z" fill="#f1e8c1"></path>
        <path d="M138.220 165.540 L162.620 165.540 L162.620 253.620 L138.220 253.620 Z" fill="#f1e8c1"></path>
        <path d="M167.200 165.540 L191.600 165.540 L191.600 253.620 L167.200 253.620 Z" fill="#f1e8c1"></path>
        <path d="M23.44 251.38H346.56V265.44H23.44z" fill="#f1e8c1"></path>
        <path d="M107.92,295.2H89.52a3,3,0,0,0-3,3V314h24.4V298.2A3,3,0,0,0,107.92,295.2Z" fill="#f1e8c1"></path>
        <path d="M195.63,295.2h-18.4a3,3,0,0,0-3,3V314h24.4V298.2A3,3,0,0,0,195.63,295.2Z" fill="#f1e8c1"></path>
        <path d="M78.53,295.2H60.13a3,3,0,0,0-3,3v15.58a39,39,0,0,0,4.21.23H81.53V298.2A3,3,0,0,0,78.53,295.2Z" fill="#f1e8c1"></path>
        <path d="M279.8,295.2H269.35a3,3,0,0,0-3,3V314H282.8V298.2A3,3,0,0,0,279.8,295.2Z" fill="#f1e8c1"></path>
        <path d="M300.83,295.2H290.38a3,3,0,0,0-3,3V314h16.45V298.2A3,3,0,0,0,300.83,295.2Z" fill="#f1e8c1"></path>
        <path d="M211,284.6h-5.15a3,3,0,0,0-3,3V314H214V287.6A3,3,0,0,0,211,284.6Z" fill="#f1e8c1"></path>
        <path d="M227,284.6h-5.15a3,3,0,0,0-3,3V314H230V287.6A3,3,0,0,0,227,284.6Z" fill="#f1e8c1"></path>
        <path d="M243.15,284.6H238a3,3,0,0,0-3,3V314h11.15V287.6A3,3,0,0,0,243.15,284.6Z" fill="#f1e8c1"></path>
        <path d="M259.2,284.6h-5.15a3,3,0,0,0-3,3V314H262.2V287.6A3,3,0,0,0,259.2,284.6Z" fill="#f1e8c1"></path>
        <path d="M138,279.3h-18.4a3,3,0,0,0-3,3V314H141V282.3A3,3,0,0,0,138,279.3Z" fill="#f1e8c1"></path>
        <path d="M166.94,279.3h-18.4a3,3,0,0,0-3,3V314h24.4V282.3A3,3,0,0,0,166.94,279.3Z" fill="#f1e8c1"></path>
        <path d="M329.85,279.3h-18.4a3,3,0,0,0-3,3V314h.21a37.72,37.72,0,0,0,24.19-8.73v-23A3,3,0,0,0,329.85,279.3Z" fill="#f1e8c1"></path>
        <path d="M49.84,279.3H31.44a3,3,0,0,0-3,3v12.63a37.94,37.94,0,0,0,24.4,18.12V282.3A3,3,0,0,0,49.84,279.3Z" fill="#f1e8c1"></path>
        <path d="M38.730 139.340 L112.890 139.340 L112.890 228.750 L38.730 228.750 Z" fill="#00b8f0" stroke="#404041" stroke-linecap="round" stroke-linejoin="round" stroke-width="4" transform="translate(-87.22 69.85) rotate(-32.6)"></path>
        <path d="M60.32,174.13a2.69,2.69,0,0,1-.86,4.05,5.21,5.21,0,0,1-1.53.61,10.05,10.05,0,0,0-3.35,1c-3.19,2-2.4,5.17-1.14,7.15a4.71,4.71,0,0,0,6.27,1.78c3-1.77,2.35-4.46,4.36-5.75a6,6,0,0,1,.61-.35,2.05,2.05,0,0,1,2.55.87,5,5,0,0,1,.55,1.11c1.38,3.78-1.46,8.14-4.39,10-5.53,3.54-12.13.76-15.35-4.26-3.53-5.53-3-12.31,2.64-16.14A10.5,10.5,0,0,1,57,172.37,4.07,4.07,0,0,1,60.32,174.13Z" fill="#ffffff"></path>
        <path
            d="M84,160.83l1.15-.73c1.12-.72,2.31-1.48,2.74-.8l.11.18c1.42,2.22-.12,3.71-2.61,5.29-.38.25-1,.65-1.41.86a24,24,0,0,0,.26,3.21,4.45,4.45,0,0,0,.64-.37c.71-.45,1.65-1.13,2.42-1.63.27-.17.52-.29.79-.46.57-.28,1-.29,1.37.33a3.59,3.59,0,0,1,.26.46c1,2.35-.92,4-2,4.71l-2.63,1.68c.11,2.59,1.39,5.57-.16,7.44a4.65,4.65,0,0,1-.84.7,1.69,1.69,0,0,1-2.3-.33,2.36,2.36,0,0,1-.2-.57c-.29-1.11-.49-3.19-.83-4.56-1,.57-3.26,2-3.29,2,.36,3.23,1,5.11.61,6.49a2.24,2.24,0,0,1-1.25,1.5A4.44,4.44,0,0,1,75,187a.84.84,0,0,1-.61-.44l-.08-.12A24.75,24.75,0,0,1,73,181.16c-1,.47-2.45,1.57-3.75,1.36a2.72,2.72,0,0,1-1.66-1.15,1.58,1.58,0,0,1-.16-1.69c.84-.58,1.46-1,2.14-1.41s1.57-.92,2.45-1.44a9.49,9.49,0,0,0-.5-2.6l-1.86,1.19c-2.48,1.59-4,.83-4.8-.47a1.12,1.12,0,0,1,0-1.25,15.14,15.14,0,0,1,3.24-2.62l2.63-1.68c-.38-2.09-.47-4.57-.8-6.4a3.66,3.66,0,0,1,1.61-2.24c.85-.55,2.12-.85,2.82.24.92,1.45.75,3.85,1,5.18l3-1.89c-.33-1.95-.45-3.71-.74-5.65a2.89,2.89,0,0,1,1.69-2.83c1.66-1.06,2.14-.83,2.56-.18.84,1.38.75,4.18,1.19,5.78A10.26,10.26,0,0,0,84,160.83Zm-7.33,13,3.2-2a14.32,14.32,0,0,0-.46-2.67,7.63,7.63,0,0,0-1.37.79c-.56.36-1.18.76-1.69,1.13C76.34,171.63,76.55,172.87,76.65,173.81Z"
            fill="#ffffff"></path>
        <path d="M131.42,246.63s-7.47-14.48-15.74-24.91c0,0,5.9-26.78-3.55-34.06s-8.46,18.7-8.46,18.7-14,3-12.41,20.87L72.17,239.45s23.43,64.17,51.19,65,36.42-18.31,36.42-18.31l-4.55-17.2Z" fill="#cbebf9" stroke="#404041" stroke-linecap="round" stroke-linejoin="round" stroke-width="4"></path>
        <path d="M160.74,213.72s-18.81,19.8-29.32,32.91l4.86,9.1L153.9,268.9a298.74,298.74,0,0,0-6.56,66.1h199V299.81a128.26,128.26,0,0,0,17.9-6.37s-2.09-33-36.44-72Z" fill="#f8d53e"></path>
        <path d="M346.3,335V299.81a128.26,128.26,0,0,0,17.9-6.37s-2.09-33-36.44-72l-167-7.72s-18.81,19.8-29.32,32.91l4.86,9.1L153.9,268.9a298.74,298.74,0,0,0-6.56,66.1" fill="none" stroke="#404041" stroke-linecap="round" stroke-linejoin="round" stroke-width="4"></path>
        <path d="M244.52,90.48s24.39-30.4,33.69-22.43-4.42,21.31-25.54,29.1" fill="#829eca" stroke="#414141" stroke-linecap="round" stroke-linejoin="round" stroke-width="4"></path>
        <path d="M327.75,221.44S349.88,96.26,274,80.15C170.09,58.09,160.74,213.72,160.74,213.72s5.88,14.18,25.15,19.36S263.21,248,327.75,221.44Z" fill="#cbebf9" stroke="#404041" stroke-linecap="round" stroke-linejoin="round" stroke-width="4"></path>
        <path d="M229.62,87.08s3.22-26.19,12.66-24,9.2,20.25,9.2,20.25" fill="#cbebf9" stroke="#404041" stroke-linecap="round" stroke-linejoin="round" stroke-width="4"></path>
        <path d="M203.49,104c3.19-17.35,14.15-72.16,24.65-67.84,6.3,2.59,7.41,52.25,7.41,52.25" fill="#cbebf9" stroke="#404041" stroke-linecap="round" stroke-linejoin="round" stroke-width="4"></path>
        <path d="M297.06,97.45S321.46,67.06,330.75,75s-4.41,21.31-25.53,29.09" fill="#cbebf9" stroke="#404041" stroke-linecap="round" stroke-linejoin="round" stroke-width="4"></path>
        <path d="M238.510 131.460 A12.160 12.160 0 1 0 262.830 131.460 A12.160 12.160 0 1 0 238.510 131.460 Z" fill="#f9c1b6"></path>
        <path d="M238.700 116.910 A6.89 4.6 0 1 0 252.480 116.910 A6.89 4.6 0 1 0 238.700 116.910 Z" fill="#404041" transform="translate(87.24 338.06) rotate(-79.85)"></path>
        <path d="M192.28 129.91L198.81 137.19 220.65 131.46" fill="none" stroke="#404041" stroke-linecap="round" stroke-linejoin="round" stroke-width="4"></path>
        <path d="M220.65,125.8s-1.68,6.53,2.61,11.38" fill="none" stroke="#404041" stroke-linecap="round" stroke-linejoin="round" stroke-width="4"></path>
        <path d="M165.85,237.55a41,41,0,0,0,20.15,11c18.07,4.29,69.82,11.46,128.28-10.5" fill="none" stroke="#f89f33" stroke-linecap="round" stroke-linejoin="round" stroke-width="4"></path>
        <path d="M217.240 192.020 L291.400 192.020 L291.400 281.430 L217.240 281.430 Z" fill="#ff6242" stroke="#404041" stroke-linecap="round" stroke-linejoin="round" stroke-width="4" transform="translate(-27.11 32.98) rotate(-7.04)"></path>
        <path d="M232.38,236a46.74,46.74,0,0,1,0,4.73c-.26,1-1.76,1.78-3.05,1.94s-2.76-.3-3-1.43a89,89,0,0,1-1.61-9.56c-.46-3.76-.72-7.55-.91-11.1.86-1.38,3.5-2.34,6.11-2.66,5.26-.65,11.06.79,11.9,7.58.73,5.89-3.5,9.77-9,10.45Zm-1-6.21a1.47,1.47,0,0,0,1,.23,3.51,3.51,0,0,0,3.16-3.93,3,3,0,0,0-3.35-2.77,2.76,2.76,0,0,0-1.55.65Z" fill="#ffffff"></path>
        <path d="M257,236.9a29.48,29.48,0,0,1-.89-4.63c-.3-2.43-.73-2.74-2.33-2.54s-2.27.53-2.07,2.17c.18,1.42.48,2.41.6,3.42.25,2-.21,4-2,4.22a3,3,0,0,1-1.85-.38c-1.06-.57-1.93-2.2-2.59-4.06a38.13,38.13,0,0,1-1.57-7.23c-.21-1.71-.41-4.2-.44-6.21a11,11,0,0,1,.2-3.24,3.13,3.13,0,0,1,2.78-2.36c1.95-.24,2.93.84,3.15,2.58l.39,3.17c.22,1.74.58,3,2.22,2.77,2.37-.3,2.48-1.05,2.05-4.57l-.09-.73c-.32-2.61.86-4.49,3.12-4.77,1.95-.25,3.13.42,3.72,3.18.16.76.34,1.87.5,3.19a103.1,103.1,0,0,1,.82,14.4c-.07,1.67-.61,3-2.32,3.22C258.88,238.68,257.48,238.5,257,236.9Z" fill="#ffffff"></path>
        <path d="M273.33,230.92a46.93,46.93,0,0,1,0,4.74c-.26,1-1.76,1.77-3.05,1.93s-2.76-.3-3-1.43a89,89,0,0,1-1.61-9.56c-.46-3.76-.72-7.55-.91-11.1.86-1.38,3.5-2.34,6.11-2.66,5.26-.65,11.06.79,11.9,7.58.73,5.89-3.5,9.77-9,10.45Zm-1-6.21a1.47,1.47,0,0,0,1,.23,3.51,3.51,0,0,0,3.16-3.93,3,3,0,0,0-3.35-2.77,2.76,2.76,0,0,0-1.55.65Z" fill="#ffffff"></path>
        <path d="M295,301l-9.18-12.86s7.11-8.49,4.9-12.65-11,1.22-11,1.22c-1.56-17-6.07-20.8-10.22-21.66s-7.11,4.16-7.11,4.16-2.08-5.9-7.28-5.55-5.78,6-5.78,6a7.53,7.53,0,0,0-4.61-1.2c-9.68.6-17.09,45.82,2.86,76.5h93.69c6.49-16.86,5-35.19,5-35.19C316.48,303.9,295,301,295,301Z" fill="#cbebf9"></path>
        <path d="M341.34,335c6.49-16.86,5-35.19,5-35.19C316.48,303.9,295,301,295,301l-9.18-12.86s7.11-8.49,4.9-12.65-11,1.22-11,1.22c-1.56-17-6.07-20.8-10.22-21.66s-7.11,4.16-7.11,4.16-2.08-5.9-7.28-5.55-5.78,6-5.78,6a7.53,7.53,0,0,0-4.61-1.2c-9.68.6-17.09,45.82,2.86,76.5" fill="none" stroke="#404041" stroke-linecap="round" stroke-linejoin="round" stroke-width="4"></path>
        <path d="M295.03 300.99L305.38 314.88" fill="none" stroke="#404041" stroke-linecap="round" stroke-linejoin="round" stroke-width="4"></path>
        <path d="M249.4,259.7s-1.27,5.85-.84,8.22" fill="#f16522" stroke="#404041" stroke-linecap="round" stroke-linejoin="round" stroke-width="4"></path>
        <path d="M262.46,259.2s-.1,3.87,0,7.31" fill="#f16522" stroke="#404041" stroke-linecap="round" stroke-linejoin="round" stroke-width="4"></path>
        <path d="M181.1 287.35L169.78 302.1 181.1 316.14" fill="none" stroke="#f89f33" stroke-linecap="round" stroke-linejoin="round" stroke-width="4"></path>
        <path d="M214.14 287.35L225.46 302.1 214.14 316.14" fill="none" stroke="#f89f33" stroke-linecap="round" stroke-linejoin="round" stroke-width="4"></path>
        <path d="M190.19 325.79L204.67 274.31" fill="none" stroke="#f89f33" stroke-linecap="round" stroke-linejoin="round" stroke-width="4"></path>
        <path d="M156.56,260.28c-1.25,3.56-2.66,8.62-2.66,8.62" fill="none" stroke="#404041" stroke-linecap="round" stroke-linejoin="round" stroke-width="4"></path>
        <path d="M136.28,255.73a57.66,57.66,0,0,1,2.05,8.65" fill="#f16522" stroke="#404041" stroke-linecap="round" stroke-linejoin="round" stroke-width="4"></path>
    </g>
</svg>
