<svg xmlns="http://www.w3.org/2000/svg" viewBox="0 0 140 140">
    <path d="M42.798 89.142a.106.106 0 01.042.08.11.11 0 01-.042.08l-37.747 29.54a.81.81 0 01-.756.109.617.617 0 01-.436-.56c0-1.264 0-2.456.027-3.648 0-.181.291-.378.503-.53 3.057-1.997 6.126-3.976 9.18-5.974 2.788-1.824 5.55-3.67 8.324-5.49q10.36-6.773 20.724-13.527a1.665 1.665 0 01.181-.08zM3.844 28.863a.62.62 0 01.401-.557.832.832 0 01.757.065l41.504 26.865a.144.144 0 01.046.212c-.689-.379-1.385-.72-2.066-1.094q-9.293-5.1-18.582-10.216C22.26 42.14 18.59 40.172 14.93 38.19L4.416 32.488a.957.957 0 01-.59-.962c.03-.877.026-1.74.018-2.663zM131.903 13.043a.73.73 0 01.67.378.545.545 0 01-.144.674L92.24 49.223a.193.193 0 01-.238 0c.972-.968 1.94-1.945 2.92-2.913q4.216-4.162 8.446-8.351 7.515-7.431 15.03-14.878c2.981-2.947 6.053-5.838 8.914-8.87a3.519 3.519 0 013.182-1.225c.458.057.92.06 1.408.057zM102.242 52.273a.144.144 0 01-.05-.129.182.182 0 01.084-.117l32.756-19.645a.829.829 0 01.757-.046.61.61 0 01.378.545c0 .885 0 1.722-.026 2.558 0 .17-.31.378-.534.496q-9.115 4.46-18.245 8.907-7.277 3.564-14.526 7.162c-.193.095-.398.182-.594.269zM13.319 14.045a.549.549 0 01-.129-.662.757.757 0 01.662-.378c.878 0 1.696 0 2.51.019a1.09 1.09 0 01.688.314q7.26 7.9 14.492 15.816Q36.767 34.883 42 40.604c.087.098.166.2.25.302a.163.163 0 01-.05.243zM136.17 109.556a.61.61 0 01-.404.552.832.832 0 01-.757-.068l-29.301-19.388a.121.121 0 01-.038-.17c.715.378 1.438.711 2.145 1.086q8.703 4.63 17.432 9.27 5.297 2.815 10.557 5.676a.723.723 0 01.352.514c.019.81.019 1.646.015 2.528zM10.334 125.3a.757.757 0 01-.666-.378.552.552 0 01.14-.666l38.394-34.3a.216.216 0 01.264 0c-.756.73-1.513 1.464-2.27 2.19-2.94 2.842-5.891 5.676-8.824 8.522q-6.977 6.791-13.943 13.576c-2.747 2.675-5.52 5.324-8.271 7.972-.904.87-1.756 1.779-2.683 2.626a1.87 1.87 0 01-1.04.42c-.36.03-.723.038-1.101.038zM3.86 17.682a.624.624 0 01.442-.56.806.806 0 01.78.12l38.931 31.656a.14.14 0 010 .212c-.893-.659-1.786-1.313-2.671-1.98q-6.08-4.54-12.154-9.107c-4.646-3.47-9.33-6.917-13.989-10.401-3.556-2.649-7.087-5.298-10.658-7.946-.504-.379-.795-.757-.73-1.347.037-.22.045-.432.048-.647zM76.879 13.062a.776.776 0 01.541.208.56.56 0 01.174.484q-2.388 16.119-4.768 32.162a.17.17 0 01-.189.129q.916-16.172 1.824-32.382a.681.681 0 01.723-.586zM90.262 95.73a.208.208 0 01.125-.027.185.185 0 01.11.06l22.76 28.583a.537.537 0 01.04.632.757.757 0 01-.631.33c-.643 0-1.245 0-1.843-.03-.223 0-.492-.28-.632-.485-1.96-2.845-3.89-5.706-5.846-8.555q-3.961-5.77-7.946-11.533-3.027-4.37-6.054-8.744a1.01 1.01 0 01-.083-.231zM48.36 124.83a.719.719 0 01-.688.432h-1.767a.757.757 0 01-.602-.272.541.541 0 01-.064-.58q6.224-12.758 12.403-25.419a.238.238 0 01.276-.106q-4.775 12.96-9.557 25.946zM125.886 124.275a.541.541 0 01.118.658.734.734 0 01-.659.378c-.36 0-.7 0-1.044-.034a1.385 1.385 0 01-.787-.446c-1.809-1.892-3.587-3.833-5.388-5.744q-5.676-6.054-11.378-12.07-4.162-4.431-8.294-8.885a.08.08 0 010-.124.121.121 0 01.151 0zM82.108 42.072a.106.106 0 01-.083-.133c.272-.798.522-1.6.82-2.39q1.223-3.22 2.476-6.433c.866-2.229 1.748-4.454 2.607-6.686q1.975-5.116 3.923-10.235c.333-.87.651-1.745.995-2.611a.757.757 0 01.92-.587 8.078 8.078 0 00.916.03.757.757 0 01.605.27.537.537 0 01.076.574zM36.067 125.277a.757.757 0 01-.624-.306.53.53 0 010-.613c5.165-7.746 10.261-15.381 15.358-23.017a.166.166 0 01.208-.053l-2.898 5.237-6.433 11.563c-1.244 2.229-2.497 4.454-3.73 6.69a.866.866 0 01-.935.518c-.31-.019-.62-.022-.946-.019zM3.863 56.711a.59.59 0 01.276-.484.814.814 0 01.625-.11l28.775 6.175a.17.17 0 01.148.193l-2.467-.378q-3.197-.484-6.39-.972c-2.025-.314-4.05-.647-6.078-.961-2.557-.39-5.13-.769-7.677-1.147-1.979-.31-3.954-.655-5.93-.98-.4-.064-.805-.11-1.206-.17-.034 0-.072-.068-.072-.106-.004-.352-.004-.693-.004-1.06zM136.182 98.636a.594.594 0 01-.378.408.757.757 0 01-.61 0L104.169 84.59a.174.174 0 01-.095-.242c.757.295 1.483.587 2.217.893q8.43 3.534 16.86 7.08a1612.42 1612.42 0 0012.056 4.998c.696.272 1.135.602.976 1.317zM33.755 53.208a.23.23 0 01-.269.094c-.26-.087-.522-.166-.756-.268l-17.565-7.352c-3.64-1.514-7.283-3.027-10.916-4.571a.666.666 0 01-.378-.428 4.204 4.204 0 01-.03-.442.602.602 0 01.351-.538.825.825 0 01.72 0zM106.945 72.395a.117.117 0 01.132-.094l28.352 1.207a.674.674 0 01.689.616v.515a.583.583 0 01-.246.462.81.81 0 01-.564.15zM4.896 106.29a.757.757 0 01-.692.042.56.56 0 01-.379-.503c0-1.48 0-1.468 1.514-2.203q7.05-3.428 14.09-6.867a.378.378 0 01.447.095.257.257 0 01-.087.378zM4.73 80.02a.802.802 0 01-.598-.13.575.575 0 01-.265-.472v-.072a.655.655 0 01.613-.605l31.004-4.057a.17.17 0 01.193.118zM82.536 124.547a.541.541 0 01-.137.496.757.757 0 01-.53.238h-.113c-.503.045-.624-.14-.696-.556-.356-2.017-.783-4.026-1.165-6.054-.34-1.797-.651-3.602-.977-5.403q-.571-3.19-1.135-6.387c-.378-2.002-.722-4.004-1.093-6.002-.091-.495-.197-.987-.3-1.479a.2.2 0 01.186-.23c1.975 8.44 3.954 16.86 5.96 25.377zM4.2 96.729a.291.291 0 01-.238 0 .2.2 0 01-.118-.174c-.038-1.166-.026-1.136 1.268-1.616 3.481-1.264 6.95-2.558 10.432-3.83q6.727-2.451 13.459-4.884a.114.114 0 01.132.045.08.08 0 01-.05.118zM132.72 124.282a.352.352 0 010 .549.515.515 0 01-.647 0l-.076-.068a402.562 402.562 0 00-6.338-5.8c-3.568-3.21-7.162-6.392-10.73-9.597q-4.92-4.404-9.778-8.823a.095.095 0 010-.148.136.136 0 01.174 0zM135.104 43.014a.836.836 0 01.757.06.568.568 0 01.28.598c-.095.436-.428.557-1.317.882-3.027 1.086-6.009 2.195-9.006 3.303q-6.24 2.312-12.467 4.64a.106.106 0 01-.133-.046.08.08 0 01.046-.114zM55.701 29.865a.174.174 0 01-.197-.09l-6.81-15.892a.549.549 0 01.087-.564.757.757 0 01.594-.261h.43a.715.715 0 01.697.454l5.2 16.353zM73.867 124.604a.556.556 0 01-.193.461.78.78 0 01-.526.197.552.552 0 01-.59-.488l-.522-21.409a.121.121 0 01.125-.11c.567 7.095 1.135 14.19 1.706 21.349zM135.316 59.099a.832.832 0 01.594.125.575.575 0 01.257.473c0 .42-.216.461-.972.564-2.346.317-4.696.597-7.042.904-1.582.204-3.156.443-4.737.647-1.84.234-3.682.443-5.52.677-1.715.22-3.425.462-5.14.693a.098.098 0 01-.113-.072.087.087 0 01.08-.099zM116.276 13.035a.757.757 0 01.726.295.537.537 0 01-.045.681l-10.455 11.794a.155.155 0 01-.166.034 1.188 1.188 0 01.113-.306q4.54-6.077 9.108-12.146a1.203 1.203 0 01.719-.352zM40.486 34.81a.235.235 0 01-.143.039.208.208 0 01-.129-.065L21.352 13.345a.314.314 0 010-.423c.333.162.78.257.987.5 3.527 4.108 7.02 8.24 10.523 12.364l7.167 8.435c.162.189.291.397.457.59zM106.665 125.156a.416.416 0 01-.443.06 1.135 1.135 0 01-.48-.317c-1.347-2.13-2.649-4.283-3.985-6.433-1.774-2.807-3.583-5.603-5.373-8.407-.378-.583-.726-1.17-1.09-1.752a.163.163 0 010-.144.208.208 0 01.11-.11zM91.19 124.736a.291.291 0 01-.224.379.378.378 0 01-.435-.19l-.023-.056a447.091 447.091 0 00-2.732-7.734c-1.018-2.83-2.062-5.653-3.091-8.48a.106.106 0 01.083-.132.132.132 0 01.159.068c2.1 5.365 4.177 10.734 6.262 16.145zM68.309 30.43a.125.125 0 01-.133-.11q-.564-8.427-1.135-16.869a.299.299 0 01.307-.291.314.314 0 01.344.261v.05c.144 3.723.306 7.45.454 11.173.064 1.699.106 3.405.155 5.093.015.23.008.461.008.692zM17.621 71.362a.166.166 0 01.163.152.155.155 0 01-.163.15l-13.383.648a.31.31 0 01-.337-.242c-.042-.292.042-.295.48-.307 4.424-.144 8.832-.299 13.24-.4zM114.785 65.433a.14.14 0 01.026-.114.197.197 0 01.118-.06c1.036-.117 2.07-.25 3.11-.352 2.183-.208 4.374-.378 6.557-.602s4.31-.469 6.467-.7c1.513-.162 3.027-.321 4.54-.461a.443.443 0 01.121 0 .22.22 0 01.186.215.223.223 0 01-.216.193c-1.748.182-3.5.345-5.248.5q-5.717.51-11.43 1.006zM23.562 57.843a.155.155 0 01-.08.11.208.208 0 01-.144.018c-.843-.196-1.687-.378-2.527-.59l-10.277-2.44c-1.96-.466-3.928-.912-5.88-1.404a4.726 4.726 0 01-.556-.118.227.227 0 01-.144-.302.295.295 0 01.344-.148zM23.206 79.33a.129.129 0 01-.106.14L4.223 83.58a.454.454 0 01-.435-.136c.158-.129.295-.333.48-.379 2.384-.48 4.779-.927 7.163-1.407s4.654-.969 6.977-1.453c1.4-.295 2.8-.594 4.2-.874a2.86 2.86 0 01.598 0zM65.482 124.668a.681.681 0 01-.723.587.496.496 0 01-.348-.137.378.378 0 01-.11-.314c.515-3.004 1.022-5.974 1.533-8.94a.117.117 0 01.129-.088c-.16 2.944-.318 5.888-.48 8.892zM136.05 47.441a.318.318 0 01-.053.443.708.708 0 01-.22.136q-6.372 2.108-12.766 4.196-1.294.42-2.596.825a.129.129 0 01-.159-.06.106.106 0 01.068-.137zM33.388 36.794a.11.11 0 01.14 0l4.087 3.473a.064.064 0 01.03.064.095.095 0 01-.03.065c-.863-.693-1.737-1.37-2.577-2.078-.575-.48-1.101-1.017-1.65-1.524zM85.18 25.382a6.92 6.92 0 01-.128 1.086c-.053.185-.11.378-.178.556a.106.106 0 01-.125.057.09.09 0 01-.072-.106c.17-.523.34-1.049.507-1.57aNaN NaN 0 00-.003-.023zM27.062 73.53l2.35-.2a.276.276 0 01.189.049.197.197 0 01.087.151zM103.169 42.757a.064.064 0 00.072 0l1.494-1.483a.242.242 0 01.155-.065.265.265 0 01.163.057z" fill="#fff48c"/>
    <path d="M47.79 49.394a20.716 20.716 0 1041.432 0 20.716 20.716 0 10-41.433 0z" fill="#ffe500"/>
    <path d="M70.893 68.751c0-21.722 6.75-20.02 6.75-17.466 0 4.068-18.28 4.068-18.28 0 0-2.554 6.751-4.256 6.751 17.466" fill="none" stroke="#b58b00" stroke-linecap="round" stroke-linejoin="round" stroke-width="1.51352"/>
    <path d="M47.79 49.394a20.716 20.716 0 1041.432 0 20.716 20.716 0 10-41.433 0z" fill="none" stroke="#45413c" stroke-linecap="round" stroke-linejoin="round" stroke-width="1.51352"/>
    <path d="M74.503 79.29H62.504l-1.392-10.542h14.783l-1.392 10.541z" fill="#8ca4b8" stroke="#45413c" stroke-linecap="round" stroke-linejoin="round" stroke-width="1.51352"/>
    <path d="M71.722 79.29a3.216 3.216 0 01-6.433 0z" fill="#656769" stroke="#45413c" stroke-linecap="round" stroke-linejoin="round" stroke-width="1.51352"/>
    <path d="M57.305 43.582a2.509 2.509 0 01-2.44.9 1.714 1.714 0 01-1.377-1.778c.117-2.974 1.8-6.054 4.733-8.06s6.523-2.486 9.369-1.456a1.722 1.722 0 011.135 1.937 2.52 2.52 0 01-1.726 1.93 20.179 20.179 0 00-9.694 6.527z" fill="#fff48c"/>
    <path d="M71.722 17.17c0 2.169-3.217 7.224-3.217 7.224s-3.216-5.055-3.216-7.223S66.727 14 68.505 14s3.217 1.003 3.217 3.17zM47.994 24.334c1.513 1.513 2.834 7.382 2.834 7.382s-5.85-1.302-7.383-2.834-1.222-3.258.034-4.514 2.982-1.567 4.515-.034zM36.283 46.162c2.168 0 7.223 3.216 7.223 3.216s-5.055 3.217-7.223 3.217-3.171-1.442-3.171-3.217.999-3.216 3.17-3.216zM89.014 24.334c-1.533 1.513-2.835 7.382-2.835 7.382s5.85-1.302 7.383-2.834 1.226-3.258-.03-4.514-2.986-1.567-4.518-.034zM100.728 46.162c-2.168 0-7.223 3.216-7.223 3.216s5.055 3.217 7.223 3.217 3.167-1.442 3.167-3.217-.999-3.216-3.167-3.216z" fill="#ffe500" stroke="#ebcb00" stroke-linecap="round" stroke-linejoin="round" stroke-width="1.51352"/>
    <path d="M81.53 126s-.447-6.784-.304-6.792c3.383.378 6.21-.121 7.19-1.892 3.84-7.03-4.722-11.639-4.722-11.639a32.582 32.582 0 0018.313-29.301c0-5.067-65.157-5.067-65.157 0a32.586 32.586 0 0018.318 29.301s-6.493 2.327-5.532 9.025c.378 2.724 3.893 4.805 8.188 5.97.038 0-.379 5.343-.379 5.343" fill="#fff"/>
    <path d="M76.38 79.46a16.649 16.649 0 0019.092 16.49 32.427 32.427 0 006.531-19.574zM36.846 76.36a32.43 32.43 0 006.535 19.574 16.649 16.649 0 0019.09-16.475z" fill="#e0e0e0"/>
    <path d="M81.53 126s-.447-6.784-.304-6.792c3.383.378 6.21-.121 7.19-1.892 3.84-7.03-4.722-11.639-4.722-11.639a32.582 32.582 0 0018.313-29.301c0-5.067-65.157-5.067-65.157 0a32.586 32.586 0 0018.318 29.301s-6.493 2.327-5.532 9.025c.378 2.724 3.893 4.805 8.188 5.97.038 0-.379 5.343-.379 5.343" fill="none" stroke="#45413c" stroke-linecap="round" stroke-linejoin="round" stroke-width="1.51352"/>
    <path d="M34.16 79.047a13.845 13.845 0 1027.69 0 13.845 13.845 0 10-27.69 0z" fill="#fff" stroke="#45413c" stroke-linecap="round" stroke-linejoin="round" stroke-width="1.51352"/>
    <path d="M46.374 79.047a1.63 1.63 0 103.262 0 1.63 1.63 0 10-3.262 0z" fill="#45413c"/>
    <path d="M77.004 79.047a13.845 13.845 0 1027.69 0 13.845 13.845 0 10-27.69 0z" fill="#fff" stroke="#45413c" stroke-linecap="round" stroke-linejoin="round" stroke-width="1.51352"/>
    <path d="M89.218 79.047a1.63 1.63 0 103.261 0 1.63 1.63 0 10-3.261 0z" fill="#45413c"/>
    <path d="M36.809 64.366c.193-2.649 3.939-4.654 6.55-3.368M102.041 64.366c-.19-2.649-3.939-4.654-6.55-3.368" fill="none" stroke="#45413c" stroke-linecap="round" stroke-linejoin="round" stroke-width="1.51352"/>
    <path d="M63.715 86.649c0 3.783 2.558 6.852 5.71 6.852s5.713-3.069 5.713-6.852z" fill="#ffa694" stroke="#45413c" stroke-linecap="round" stroke-linejoin="round" stroke-width="1.51352"/>
    <path d="M81.226 119.208c-7.911-.87-18.892-6.474-16.504-11.332 3.405-6.936 14 2.648 14 2.648" fill="none" stroke="#45413c" stroke-linecap="round" stroke-linejoin="round" stroke-width="1.51352"/>
    <path d="M59.046 111.031c-.254 3.406 16.251-.378 16.092 6.054-.12 4.87-9.898 5.59-17.318 3.572" fill="#fff" stroke="#45413c" stroke-linecap="round" stroke-linejoin="round" stroke-width="1.51352"/>
</svg>
